<svg xmlns="http://www.w3.org/2000/svg" xmlns:xlink="http://www.w3.org/1999/xlink" x="0" y="0" width="661.9885864257812" height="558.9109497070312" style="
        width:661.9885864257812px;
        height:558.9109497070312px;
        background: #FFF;
        fill: none;
">
        <svg xmlns="http://www.w3.org/2000/svg"><g><defs><pattern id=".8020705949002924" width="10" height="10" patternUnits="userSpaceOnUse"><path d="M 10 0 L 0 0 0 10" fill="none" stroke="lightgray" stroke-width="0.5"/></pattern></defs><rect width="100%" height="100%" fill="url(#.8020705949002924)" stroke="lightgray" stroke-width="0.5"/></g></svg>
        
        <svg xmlns="http://www.w3.org/2000/svg" class="role-diagram-draw-area"><g class="shapes-region" style="stroke: black; fill: none;"><g class="composite-shape"><path class="real" d=" M121.05,218.79 C121.05,213.56 125.3,209.32 130.53,209.32 L228.47,209.32 C233.7,209.32 237.94,213.56 237.94,218.79 L237.94,247.21 C237.94,252.45 233.7,256.69 228.47,256.69 L130.53,256.69 C125.3,256.69 121.05,252.45 121.05,247.21 Z" style="stroke-width: 1; stroke: rgb(0, 0, 0); fill: none; fill-opacity: 1;"/></g><g class="composite-shape"><path class="real" d=" M285.59,224.73 C285.59,219.87 289.54,215.92 294.4,215.92 L375.52,215.92 C380.39,215.92 384.33,219.87 384.33,224.73 L384.33,251.16 C384.33,256.02 380.39,259.96 375.52,259.96 L294.4,259.96 C289.54,259.96 285.59,256.02 285.59,251.16 Z" style="stroke-width: 1; stroke: rgb(0, 0, 0); fill: none; fill-opacity: 1;"/></g><g class="composite-shape"><path class="real" d=" M121.04,313.92 C121.04,309.05 124.99,305.11 129.85,305.11 L191.67,305.11 C196.54,305.11 200.48,309.05 200.48,313.92 L200.48,340.34 C200.48,345.2 196.54,349.15 191.67,349.15 L129.85,349.15 C124.99,349.15 121.04,345.2 121.04,340.34 Z" style="stroke-width: 1; stroke: rgb(0, 0, 0); fill: none; fill-opacity: 1;"/></g><g class="composite-shape"><path class="real" d=" M431.99,171.03 C431.99,153.27 446.39,138.88 464.14,138.88 L560.99,138.88 C578.74,138.88 593.14,153.27 593.14,171.03 L593.14,267.48 C593.14,285.23 578.74,299.63 560.99,299.63 L464.14,299.63 C446.39,299.63 431.99,285.23 431.99,267.48 Z" style="stroke-width: 1; stroke: rgb(0, 0, 0); fill: none; fill-opacity: 1;"/></g><g class="composite-shape"><path class="real" d=" M335.45,454.04 C335.45,449.17 339.39,445.23 344.25,445.23 L411.76,445.23 C416.62,445.23 420.57,449.17 420.57,454.04 L420.57,480.46 C420.57,485.33 416.62,489.27 411.76,489.27 L344.25,489.27 C339.39,489.27 335.45,485.33 335.45,480.46 Z" style="stroke-width: 1; stroke: rgb(0, 0, 0); fill: none; fill-opacity: 1;"/></g><g class="composite-shape"><path class="real" d=" M264.17,321.32 C264.17,316.45 268.11,312.51 272.97,312.51 L397.22,312.51 C402.09,312.51 406.03,316.45 406.03,321.32 L406.03,347.74 C406.03,352.61 402.09,356.55 397.22,356.55 L272.97,356.55 C268.11,356.55 264.17,352.61 264.17,347.74 Z" style="stroke-width: 1; stroke: rgb(0, 0, 0); fill: none; fill-opacity: 1; stroke-dasharray: 6, 6;"/></g><g class="composite-shape"><path class="real" d=" M118.79,145.26 C118.79,140.52 122.63,136.67 127.37,136.67 L229.35,136.67 C234.1,136.67 237.94,140.52 237.94,145.26 L237.94,171.03 C237.94,175.77 234.1,179.61 229.35,179.61 L127.37,179.61 C122.63,179.61 118.79,175.77 118.79,171.03 Z" style="stroke-width: 1; stroke: rgb(0, 0, 0); fill: none; fill-opacity: 1;"/></g><g class="composite-shape"><path class="real" d=" M289.01,149.67 C289.01,144.92 292.85,141.08 297.6,141.08 L356.42,141.08 C361.16,141.08 365.01,144.92 365.01,149.67 L365.01,175.43 C365.01,180.17 361.16,184.02 356.42,184.02 L297.6,184.02 C292.85,184.02 289.01,180.17 289.01,175.43 Z" style="stroke-width: 1; stroke: rgb(0, 0, 0); fill: none; fill-opacity: 1; stroke-dasharray: 6, 6;"/></g><g class="arrow-line"><path class="connection real" stroke-dasharray="" d="  M180.05,209.32 L180.06,181.61" style="stroke: rgb(0, 0, 0); stroke-width: 1; fill: none; fill-opacity: 1;"/><g stroke="#000" transform="matrix(-0.00034906584330888065,0.9999999390765166,-0.9999999390765166,-0.00034906584330888065,180.06516938082635,179.61476869526695)" style="stroke: rgb(0, 0, 0); stroke-width: 1;"><path d=" M10.93,-3.29 Q4.96,-0.45 0,0 Q4.96,0.45 10.93,3.29"/></g></g><g class="arrow-line"><path class="connection real" stroke-dasharray="" d="  M239.06,161.97 L284.74,162" style="stroke: rgb(0, 0, 0); stroke-width: 1; fill: none; fill-opacity: 1;"/><g stroke="#000" transform="matrix(-0.9999998629221643,-0.000523598751673548,0.000523598751673548,-0.9999998629221643,286.7380033213215,161.9982762622922)" style="stroke: rgb(0, 0, 0); stroke-width: 1;"><path d=" M10.93,-3.29 Q4.96,-0.45 0,0 Q4.96,0.45 10.93,3.29"/></g></g><g class="arrow-line"><path class="connection real" stroke-dasharray="" d="  M240.93,235.54 L282.06,235.56" style="stroke: rgb(0, 0, 0); stroke-width: 1; fill: none; fill-opacity: 1;"/><g stroke="#000" transform="matrix(-0.9999998629221643,-0.000523598751673548,0.000523598751673548,-0.9999998629221643,284.063916409593,235.56527677125206)" style="stroke: rgb(0, 0, 0); stroke-width: 1;"><path d=" M10.93,-4.9 Q4.96,-1 0,0 Q4.96,1 10.93,4.9"/></g></g><g class="arrow-line"><path class="connection real" stroke-dasharray="" d="  M329.39,185.99 L329.03,216.02" style="stroke: rgb(0, 0, 0); stroke-width: 1; fill: none; fill-opacity: 1;"/><g stroke="#000" transform="matrix(0.011867960298537202,-0.9999295732792147,0.9999295732792147,0.011867960298537202,329.0094909667969,218.02273559570307)" style="stroke: rgb(0, 0, 0); stroke-width: 1;"><path d=" M10.93,-3.29 Q4.96,-0.45 0,0 Q4.96,0.45 10.93,3.29"/></g></g><g class="arrow-line"><path class="connection real" stroke-dasharray="" d="  M152.82,305.11 L152.83,258.69" style="stroke: rgb(0, 0, 0); stroke-width: 1; fill: none; fill-opacity: 1;"/><g stroke="#000" transform="matrix(-0.0001745329243121316,0.9999999847691291,-0.9999999847691291,-0.0001745329243121316,152.82955220452976,256.6869230895314)" style="stroke: rgb(0, 0, 0); stroke-width: 1;"><path d=" M10.93,-3.29 Q4.96,-0.45 0,0 Q4.96,0.45 10.93,3.29"/></g></g><g class="arrow-line"><path class="connection real" stroke-dasharray="" d="  M386.59,236.84 L427.72,236.87" style="stroke: rgb(0, 0, 0); stroke-width: 1; fill: none; fill-opacity: 1;"/><g stroke="#000" transform="matrix(-0.9999998629221643,-0.000523598751673548,0.000523598751673548,-0.9999998629221643,429.7249934968786,236.86836910243477)" style="stroke: rgb(0, 0, 0); stroke-width: 1;"><path d=" M10.93,-4.9 Q4.96,-1 0,0 Q4.96,1 10.93,4.9"/></g></g><g class="arrow-line"><path class="connection real" stroke-dasharray="" d="  M333.25,309.51 L333.27,263.09" style="stroke: rgb(0, 0, 0); stroke-width: 1; fill: none; fill-opacity: 1;"/><g stroke="#000" transform="matrix(-0.0001745329243121316,0.9999999847691291,-0.9999999847691291,-0.0001745329243121316,333.26551599749473,261.0910461977751)" style="stroke: rgb(0, 0, 0); stroke-width: 1;"><path d=" M10.93,-3.29 Q4.96,-0.45 0,0 Q4.96,0.45 10.93,3.29"/></g></g><g class="composite-shape"><path class="real" d=" M36.5,29.02 L630.01,29.02 L630.01,511 L36.5,511 Z" style="stroke-width: 1; stroke: rgb(0, 0, 0); fill: none; fill-opacity: 1;"/></g><g class="arrow-line"><path class="connection real" stroke-dasharray="" d="  M220.91,256.66 L222.03,374.7" style="stroke: rgb(0, 0, 0); stroke-width: 1; fill: none; fill-opacity: 1;"/><g stroke="#000" transform="matrix(-0.009599163462400613,-0.999953926969049,0.999953926969049,-0.009599163462400613,222.05341252761698,376.6992777891717)" style="stroke: rgb(0, 0, 0); stroke-width: 1;"><path d=" M10.93,-3.29 Q4.96,-0.45 0,0 Q4.96,0.45 10.93,3.29"/></g></g><g class="composite-shape"><path class="real" d=" M158.5,386.58 C158.5,381.72 162.45,377.78 167.31,377.78 L260.91,377.78 C265.77,377.78 269.72,381.72 269.72,386.58 L269.72,413.01 C269.72,417.87 265.77,421.82 260.91,421.82 L167.31,421.82 C162.45,421.82 158.5,417.87 158.5,413.01 Z" style="stroke-width: 1; stroke: rgb(0, 0, 0); fill: none; fill-opacity: 1;"/></g><g class="arrow-line"><path class="connection real" stroke-dasharray="" d="  M270.84,399.8 L506.89,399.82" style="stroke: rgb(0, 0, 0); stroke-width: 1; fill: none; fill-opacity: 1;"/></g><g class="arrow-line"><path class="connection real" stroke-dasharray="" d="  M506.89,399.82 L505.78,304.93" style="stroke: rgb(0, 0, 0); stroke-width: 1; fill: none; fill-opacity: 1;"/><g stroke="#000" transform="matrix(0.01169343948524741,0.9999316293992329,-0.9999316293992329,0.01169343948524741,505.75775811404,302.93021572609007)" style="stroke: rgb(0, 0, 0); stroke-width: 1;"><path d=" M10.93,-3.29 Q4.96,-0.45 0,0 Q4.96,0.45 10.93,3.29"/></g></g><g class="composite-shape"><path class="real" d=" M150.35,450.42 C150.35,445.07 154.69,440.73 160.04,440.73 L280.24,440.73 C285.59,440.73 289.93,445.07 289.93,450.42 L289.93,479.5 C289.93,484.86 285.59,489.2 280.24,489.2 L160.04,489.2 C154.69,489.2 150.35,484.86 150.35,479.5 Z" style="stroke-width: 1; stroke: rgb(0, 0, 0); fill: none; fill-opacity: 1;"/></g><g class="composite-shape"><path class="real" d=" M320.45,70.04 C320.45,65.17 324.39,61.23 329.25,61.23 L396.76,61.23 C401.62,61.23 405.57,65.17 405.57,70.04 L405.57,96.46 C405.57,101.33 401.62,105.27 396.76,105.27 L329.25,105.27 C324.39,105.27 320.45,101.33 320.45,96.46 Z" style="stroke-width: 1; stroke: rgb(0, 0, 0); fill: none; fill-opacity: 1;"/></g><g class="arrow-line"><path class="connection real" stroke-dasharray="" d="  M375.01,108.02 L375.51,213.92" style="stroke: rgb(0, 0, 0); stroke-width: 1; fill: none; fill-opacity: 1;"/><g stroke="#000" transform="matrix(-0.004712371539373313,-0.999988896715596,0.999988896715596,-0.004712371539373313,375.52405198656356,215.92375174767335)" style="stroke: rgb(0, 0, 0); stroke-width: 1;"><path d=" M10.93,-3.29 Q4.96,-0.45 0,0 Q4.96,0.45 10.93,3.29"/></g></g><g/></g><g/><g/><g/></svg>
        <svg xmlns="http://www.w3.org/2000/svg" xmlns:xlink="http://www.w3.org/1999/xlink" width="659.9999389648438" height="556.9223022460938" style="width:659.9999389648438px;height:556.9223022460938px;font-family:Asana-Math, Asana;background:#FFF;"><g><g><g><g transform="matrix(1,0,0,1,135.98483276367188,237.2064208984375)"><path transform="matrix(0.015,0,0,-0.015,0,0)" d="M-4 30C-4 0 23 0 37 0L125 0C140 0 166 0 166 30C166 61 145 61 109 61L109 240C109 329 156 376 197 376C220 376 234 359 234 294L234 61C210 61 185 61 185 30C185 0 212 0 226 0L306 0C321 0 347 0 347 30C347 61 326 61 290 61L290 240C290 329 337 376 378 376C401 376 415 359 415 294L415 61C391 61 366 61 366 30C366 0 393 0 407 0L487 0C502 0 528 0 528 30C528 61 507 61 471 61L471 303C471 323 471 437 382 437C352 437 305 424 277 385C262 419 234 437 201 437C169 437 133 423 109 401C107 431 87 431 69 431L37 431C22 431 -4 431 -4 401C-4 370 17 370 53 370L53 61C17 61 -4 61 -4 30ZM582 216C582 89 677 -6 787 -6C897 -6 992 90 992 216C992 341 899 440 787 440C675 440 582 341 582 216ZM651 223C651 314 716 379 787 379C859 379 923 314 923 223C923 130 861 55 787 55C713 55 651 130 651 223ZM1259 562C1259 534 1281 512 1309 512C1337 512 1359 534 1359 562C1359 590 1337 612 1309 612C1281 612 1259 590 1259 562ZM1128 30C1128 0 1154 0 1169 0L1464 0C1479 0 1505 0 1505 30C1505 61 1479 61 1464 61L1359 61L1359 390C1359 421 1353 431 1319 431L1177 431C1162 431 1136 431 1136 401C1136 370 1162 370 1177 370L1290 370L1290 61L1169 61C1153 61 1128 61 1128 30ZM1607 31C1607 0 1631 0 1647 0L1908 0C1923 0 1949 0 1949 30C1949 61 1923 61 1908 61L1797 61L1797 186C1797 280 1856 376 1977 376C1978 352 1995 332 2020 332C2042 332 2062 348 2062 375C2062 395 2050 437 1967 437C1916 437 1852 419 1797 356L1797 390C1797 421 1791 431 1757 431L1647 431C1632 431 1607 431 1607 401C1607 370 1631 370 1647 370L1728 370L1728 61L1647 61C1632 61 1607 61 1607 31ZM2155 217C2155 95 2256 -6 2385 -6C2517 -6 2564 84 2564 109C2564 137 2535 137 2529 137C2511 137 2503 134 2496 115C2474 64 2420 55 2392 55C2317 55 2242 105 2226 191L2524 191C2545 191 2564 191 2564 228C2564 342 2500 440 2370 440C2251 440 2155 340 2155 217ZM2227 251C2241 324 2300 379 2370 379C2422 379 2484 354 2493 251ZM2681 -60C2681 -71 2686 -94 2722 -95L3050 -95C3086 -95 3093 -73 3093 -61C3093 -51 3088 -25 3052 -25L2723 -25C2685 -25 2681 -51 2681 -60ZM3222 35C3222 19 3222 -6 3252 -6C3261 -6 3277 -5 3289 32C3338 -4 3391 -6 3419 -6C3577 -6 3609 77 3609 125C3609 229 3480 250 3448 255C3425 259 3405 262 3380 267C3351 271 3283 283 3283 322C3283 348 3315 379 3410 379C3493 379 3507 349 3510 323C3511 306 3513 289 3544 289C3579 289 3579 310 3579 330L3579 399C3579 415 3579 440 3549 440C3525 440 3521 426 3519 419C3475 440 3431 440 3412 440C3245 440 3222 358 3222 322C3222 230 3327 213 3419 199C3468 191 3548 178 3548 125C3548 88 3511 55 3420 55C3373 55 3317 66 3292 144C3287 162 3283 173 3257 173C3222 173 3222 152 3222 132ZM3730 217C3730 95 3831 -6 3960 -6C4092 -6 4139 84 4139 109C4139 137 4110 137 4104 137C4086 137 4078 134 4071 115C4049 64 3995 55 3967 55C3892 55 3817 105 3801 191L4099 191C4120 191 4139 191 4139 228C4139 342 4075 440 3945 440C3826 440 3730 340 3730 217ZM3802 251C3816 324 3875 379 3945 379C3997 379 4059 354 4068 251ZM4225 400C4225 370 4250 370 4265 370L4353 370L4353 126C4353 30 4421 -6 4494 -6C4568 -6 4649 37 4649 126C4649 144 4649 165 4614 165C4581 165 4580 144 4580 127C4579 65 4522 55 4499 55C4422 55 4422 107 4422 132L4422 370L4586 370C4601 370 4626 370 4626 400C4626 431 4602 431 4586 431L4422 431L4422 513C4422 532 4422 554 4388 554C4353 554 4353 533 4353 513L4353 431L4266 431C4250 431 4225 431 4225 400ZM4737 400C4737 370 4763 370 4777 370L4822 370L4822 114C4822 18 4891 -6 4964 -6C5005 -6 5046 4 5083 32C5084 0 5105 0 5123 0L5196 0C5212 0 5237 0 5237 31C5237 61 5211 61 5197 61L5152 61L5152 390C5152 421 5146 431 5112 431L5039 431C5023 431 4998 431 4998 400C4998 370 5024 370 5038 370L5083 370L5083 157C5083 67 5002 55 4970 55C4891 55 4891 88 4891 120L4891 390C4891 421 4885 431 4851 431L4778 431C4762 431 4737 431 4737 400ZM5262 -192C5262 -222 5288 -222 5302 -222L5461 -222C5475 -222 5501 -222 5501 -192C5501 -161 5476 -161 5460 -161L5416 -161L5416 45C5457 3 5500 -6 5532 -6C5641 -6 5738 89 5738 216C5738 339 5649 437 5543 437C5495 437 5450 419 5416 388C5416 417 5414 431 5376 431L5303 431C5287 431 5262 431 5262 400C5262 370 5288 370 5302 370L5347 370L5347 -161L5303 -161C5287 -161 5262 -161 5262 -192ZM5416 191L5416 264C5416 323 5474 376 5537 376C5611 376 5669 303 5669 216C5669 120 5599 55 5529 55C5451 55 5416 143 5416 191Z" stroke="rgb(0,0,0)" stroke-opacity="1" stroke-width="8" fill="rgb(0,0,0)" fill-opacity="1"></path></g></g></g></g><g><g><g><g transform="matrix(1,0,0,1,301.1742248535156,246.4488525390625)"><path transform="matrix(0.015,0,0,-0.015,0,0)" d="M-4 30C-4 0 23 0 37 0L125 0C140 0 166 0 166 30C166 61 145 61 109 61L109 240C109 329 156 376 197 376C220 376 234 359 234 294L234 61C210 61 185 61 185 30C185 0 212 0 226 0L306 0C321 0 347 0 347 30C347 61 326 61 290 61L290 240C290 329 337 376 378 376C401 376 415 359 415 294L415 61C391 61 366 61 366 30C366 0 393 0 407 0L487 0C502 0 528 0 528 30C528 61 507 61 471 61L471 303C471 323 471 437 382 437C352 437 305 424 277 385C262 419 234 437 201 437C169 437 133 423 109 401C107 431 87 431 69 431L37 431C22 431 -4 431 -4 401C-4 370 17 370 53 370L53 61C17 61 -4 61 -4 30ZM582 216C582 89 677 -6 787 -6C897 -6 992 90 992 216C992 341 899 440 787 440C675 440 582 341 582 216ZM651 223C651 314 716 379 787 379C859 379 923 314 923 223C923 130 861 55 787 55C713 55 651 130 651 223ZM1259 562C1259 534 1281 512 1309 512C1337 512 1359 534 1359 562C1359 590 1337 612 1309 612C1281 612 1259 590 1259 562ZM1128 30C1128 0 1154 0 1169 0L1464 0C1479 0 1505 0 1505 30C1505 61 1479 61 1464 61L1359 61L1359 390C1359 421 1353 431 1319 431L1177 431C1162 431 1136 431 1136 401C1136 370 1162 370 1177 370L1290 370L1290 61L1169 61C1153 61 1128 61 1128 30ZM1607 31C1607 0 1631 0 1647 0L1908 0C1923 0 1949 0 1949 30C1949 61 1923 61 1908 61L1797 61L1797 186C1797 280 1856 376 1977 376C1978 352 1995 332 2020 332C2042 332 2062 348 2062 375C2062 395 2050 437 1967 437C1916 437 1852 419 1797 356L1797 390C1797 421 1791 431 1757 431L1647 431C1632 431 1607 431 1607 401C1607 370 1631 370 1647 370L1728 370L1728 61L1647 61C1632 61 1607 61 1607 31ZM2155 217C2155 95 2256 -6 2385 -6C2517 -6 2564 84 2564 109C2564 137 2535 137 2529 137C2511 137 2503 134 2496 115C2474 64 2420 55 2392 55C2317 55 2242 105 2226 191L2524 191C2545 191 2564 191 2564 228C2564 342 2500 440 2370 440C2251 440 2155 340 2155 217ZM2227 251C2241 324 2300 379 2370 379C2422 379 2484 354 2493 251ZM2681 -60C2681 -71 2686 -94 2722 -95L3050 -95C3086 -95 3093 -73 3093 -61C3093 -51 3088 -25 3052 -25L2723 -25C2685 -25 2681 -51 2681 -60ZM3175 400C3175 370 3200 370 3215 370L3303 370L3303 126C3303 30 3371 -6 3444 -6C3518 -6 3599 37 3599 126C3599 144 3599 165 3564 165C3531 165 3530 144 3530 127C3529 65 3472 55 3449 55C3372 55 3372 107 3372 132L3372 370L3536 370C3551 370 3576 370 3576 400C3576 431 3552 431 3536 431L3372 431L3372 513C3372 532 3372 554 3338 554C3303 554 3303 533 3303 513L3303 431L3216 431C3200 431 3175 431 3175 400ZM3687 580C3687 550 3713 550 3727 550L3772 550L3772 41C3772 21 3772 0 3807 0C3841 0 3841 20 3841 45C3882 3 3925 -6 3957 -6C4066 -6 4163 89 4163 216C4163 339 4074 437 3968 437C3920 437 3875 419 3841 388L3841 570C3841 601 3835 611 3801 611L3728 611C3712 611 3687 611 3687 580ZM3841 191L3841 264C3841 323 3899 376 3962 376C4036 376 4094 303 4094 216C4094 120 4024 55 3954 55C3876 55 3841 143 3841 191Z" stroke="rgb(0,0,0)" stroke-opacity="1" stroke-width="8" fill="rgb(0,0,0)" fill-opacity="1"></path></g></g></g></g><g><g><g><g transform="matrix(1,0,0,1,130.7764892578125,161.66665649414062)"><path transform="matrix(0.015,0,0,-0.015,0,0)" d="M-4 30C-4 0 23 0 37 0L125 0C140 0 166 0 166 30C166 61 145 61 109 61L109 240C109 329 156 376 197 376C220 376 234 359 234 294L234 61C210 61 185 61 185 30C185 0 212 0 226 0L306 0C321 0 347 0 347 30C347 61 326 61 290 61L290 240C290 329 337 376 378 376C401 376 415 359 415 294L415 61C391 61 366 61 366 30C366 0 393 0 407 0L487 0C502 0 528 0 528 30C528 61 507 61 471 61L471 303C471 323 471 437 382 437C352 437 305 424 277 385C262 419 234 437 201 437C169 437 133 423 109 401C107 431 87 431 69 431L37 431C22 431 -4 431 -4 401C-4 370 17 370 53 370L53 61C17 61 -4 61 -4 30ZM582 216C582 89 677 -6 787 -6C897 -6 992 90 992 216C992 341 899 440 787 440C675 440 582 341 582 216ZM651 223C651 314 716 379 787 379C859 379 923 314 923 223C923 130 861 55 787 55C713 55 651 130 651 223ZM1259 562C1259 534 1281 512 1309 512C1337 512 1359 534 1359 562C1359 590 1337 612 1309 612C1281 612 1259 590 1259 562ZM1128 30C1128 0 1154 0 1169 0L1464 0C1479 0 1505 0 1505 30C1505 61 1479 61 1464 61L1359 61L1359 390C1359 421 1353 431 1319 431L1177 431C1162 431 1136 431 1136 401C1136 370 1162 370 1177 370L1290 370L1290 61L1169 61C1153 61 1128 61 1128 30ZM1607 31C1607 0 1631 0 1647 0L1908 0C1923 0 1949 0 1949 30C1949 61 1923 61 1908 61L1797 61L1797 186C1797 280 1856 376 1977 376C1978 352 1995 332 2020 332C2042 332 2062 348 2062 375C2062 395 2050 437 1967 437C1916 437 1852 419 1797 356L1797 390C1797 421 1791 431 1757 431L1647 431C1632 431 1607 431 1607 401C1607 370 1631 370 1647 370L1728 370L1728 61L1647 61C1632 61 1607 61 1607 31ZM2155 217C2155 95 2256 -6 2385 -6C2517 -6 2564 84 2564 109C2564 137 2535 137 2529 137C2511 137 2503 134 2496 115C2474 64 2420 55 2392 55C2317 55 2242 105 2226 191L2524 191C2545 191 2564 191 2564 228C2564 342 2500 440 2370 440C2251 440 2155 340 2155 217ZM2227 251C2241 324 2300 379 2370 379C2422 379 2484 354 2493 251ZM2681 -60C2681 -71 2686 -94 2722 -95L3050 -95C3086 -95 3093 -73 3093 -61C3093 -51 3088 -25 3052 -25L2723 -25C2685 -25 2681 -51 2681 -60ZM3222 35C3222 19 3222 -6 3252 -6C3261 -6 3277 -5 3289 32C3338 -4 3391 -6 3419 -6C3577 -6 3609 77 3609 125C3609 229 3480 250 3448 255C3425 259 3405 262 3380 267C3351 271 3283 283 3283 322C3283 348 3315 379 3410 379C3493 379 3507 349 3510 323C3511 306 3513 289 3544 289C3579 289 3579 310 3579 330L3579 399C3579 415 3579 440 3549 440C3525 440 3521 426 3519 419C3475 440 3431 440 3412 440C3245 440 3222 358 3222 322C3222 230 3327 213 3419 199C3468 191 3548 178 3548 125C3548 88 3511 55 3420 55C3373 55 3317 66 3292 144C3287 162 3283 173 3257 173C3222 173 3222 152 3222 132ZM3701 400C3701 370 3726 370 3741 370L3772 370L3914 13C3918 3 3918 1 3918 0C3918 -2 3893 -84 3880 -109C3851 -164 3815 -166 3800 -167C3800 -166 3805 -158 3805 -145C3805 -120 3787 -102 3762 -102C3735 -102 3718 -120 3718 -146C3718 -188 3752 -228 3801 -228C3901 -228 3946 -96 3950 -85L4105 370L4135 370C4150 370 4175 370 4175 400C4175 431 4151 431 4135 431L4018 431C4003 431 3978 431 3978 401C3978 370 4002 370 4018 370L4046 370L3974 157C3961 120 3955 102 3948 71L3947 71C3942 90 3933 111 3926 130L3833 370L3858 370C3873 370 3898 370 3898 400C3898 431 3874 431 3858 431L3741 431C3725 431 3701 431 3701 400ZM4196 30C4196 0 4223 0 4237 0L4325 0C4340 0 4366 0 4366 30C4366 61 4345 61 4309 61L4309 240C4309 329 4356 376 4397 376C4420 376 4434 359 4434 294L4434 61C4410 61 4385 61 4385 30C4385 0 4412 0 4426 0L4506 0C4521 0 4547 0 4547 30C4547 61 4526 61 4490 61L4490 240C4490 329 4537 376 4578 376C4601 376 4615 359 4615 294L4615 61C4591 61 4566 61 4566 30C4566 0 4593 0 4607 0L4687 0C4702 0 4728 0 4728 30C4728 61 4707 61 4671 61L4671 303C4671 323 4671 437 4582 437C4552 437 4505 424 4477 385C4462 419 4434 437 4401 437C4369 437 4333 423 4309 401C4307 431 4287 431 4269 431L4237 431C4222 431 4196 431 4196 401C4196 370 4217 370 4253 370L4253 61C4217 61 4196 61 4196 30ZM4754 -82C4754 -168 4859 -229 4987 -229C5115 -229 5220 -167 5220 -82C5220 -45 5202 5 5151 32C5138 39 5096 61 5006 61L4936 61C4928 61 4915 61 4907 63C4892 63 4886 63 4874 77C4863 91 4862 111 4862 113C4862 117 4864 131 4868 141C4871 139 4909 116 4958 116C5050 116 5123 188 5123 277C5123 307 5114 336 5097 364C5118 376 5142 380 5155 381C5161 354 5184 347 5194 347C5211 347 5234 359 5234 388C5234 411 5215 442 5161 442C5150 442 5101 441 5055 407C5039 418 5004 437 4958 437C4864 437 4793 362 4793 277C4793 234 4810 201 4825 182C4814 166 4805 144 4805 114C4805 79 4819 54 4828 42C4754 -3 4754 -71 4754 -82ZM4812 -82C4812 -64 4821 -32 4853 -12C4878 4 4887 4 4960 4C5049 4 5162 4 5162 -82C5162 -126 5087 -169 4987 -169C4887 -169 4812 -126 4812 -82ZM4862 276C4862 333 4906 377 4958 377C5012 377 5054 330 5054 277C5054 220 5010 176 4958 176C4904 176 4862 223 4862 276ZM5305 217C5305 95 5406 -6 5535 -6C5667 -6 5714 84 5714 109C5714 137 5685 137 5679 137C5661 137 5653 134 5646 115C5624 64 5570 55 5542 55C5467 55 5392 105 5376 191L5674 191C5695 191 5714 191 5714 228C5714 342 5650 440 5520 440C5401 440 5305 340 5305 217ZM5377 251C5391 324 5450 379 5520 379C5572 379 5634 354 5643 251ZM5787 30C5787 0 5813 0 5827 0L5986 0C6000 0 6026 0 6026 30C6026 61 6001 61 5985 61L5941 61L5941 238C5941 338 6015 376 6066 376C6119 376 6133 348 6133 288L6133 61L6094 61C6078 61 6053 61 6053 30C6053 0 6080 0 6094 0L6247 0C6261 0 6287 0 6287 30C6287 61 6262 61 6246 61L6202 61L6202 293C6202 394 6151 437 6072 437C6005 437 5960 403 5941 384C5941 416 5941 431 5901 431L5828 431C5812 431 5787 431 5787 400C5787 370 5813 370 5827 370L5872 370L5872 61L5828 61C5812 61 5787 61 5787 30Z" stroke="rgb(0,0,0)" stroke-opacity="1" stroke-width="8" fill="rgb(0,0,0)" fill-opacity="1"></path></g></g></g></g><g><g><g><g transform="matrix(1,0,0,1,299.9053039550781,167.17800903320312)"><path transform="matrix(0.015,0,0,-0.015,0,0)" d="M32 30C32 0 57 0 72 0L448 0C481 0 488 9 488 41L488 130C488 150 488 171 454 171C419 171 419 151 419 130L419 61L178 61L178 550L234 550C248 550 275 550 275 580C275 611 249 611 234 611L72 611C56 611 32 611 32 580C32 550 57 550 72 550L109 550L109 61L72 61C56 61 32 61 32 30ZM552 30C552 0 578 0 595 0L697 0C715 0 739 0 739 30C739 61 719 61 683 61L706 165L868 165L891 61C855 61 835 61 835 30C835 0 859 0 877 0L979 0C996 0 1022 0 1022 30C1022 43 1017 53 1005 58C999 61 977 61 962 61L841 584C832 622 818 623 787 623C758 623 742 623 733 585L612 61C598 61 575 61 569 59C558 53 552 43 552 30ZM721 226L787 540L853 226ZM1067 30C1067 0 1092 0 1107 0L1189 0C1204 0 1229 0 1229 30C1229 61 1208 61 1176 61L1176 538L1177 538C1188 492 1252 300 1256 287C1264 264 1277 226 1282 219C1288 211 1300 204 1312 204C1325 204 1339 212 1347 226C1350 232 1435 485 1447 538L1448 538L1448 61C1416 61 1395 61 1395 30C1395 0 1420 0 1435 0L1517 0C1532 0 1557 0 1557 30C1557 61 1536 61 1504 61L1504 550C1536 550 1557 550 1557 581C1557 611 1532 611 1517 611L1461 611C1420 611 1416 597 1407 571L1340 369C1328 333 1319 304 1313 275L1312 275C1302 322 1214 581 1212 587C1202 611 1177 611 1163 611L1107 611C1092 611 1067 611 1067 581C1067 550 1088 550 1120 550L1120 61C1088 61 1067 61 1067 30ZM1592 30C1592 0 1617 0 1632 0L1714 0C1729 0 1754 0 1754 30C1754 61 1733 61 1701 61L1701 538L1702 538C1713 492 1777 300 1781 287C1789 264 1802 226 1807 219C1813 211 1825 204 1837 204C1850 204 1864 212 1872 226C1875 232 1960 485 1972 538L1973 538L1973 61C1941 61 1920 61 1920 30C1920 0 1945 0 1960 0L2042 0C2057 0 2082 0 2082 30C2082 61 2061 61 2029 61L2029 550C2061 550 2082 550 2082 581C2082 611 2057 611 2042 611L1986 611C1945 611 1941 597 1932 571L1865 369C1853 333 1844 304 1838 275L1837 275C1827 322 1739 581 1737 587C1727 611 1702 611 1688 611L1632 611C1617 611 1592 611 1592 581C1592 550 1613 550 1645 550L1645 61C1613 61 1592 61 1592 30ZM2126 30C2126 0 2152 0 2167 0L2296 0C2311 0 2337 0 2337 30C2337 61 2311 61 2296 61L2266 61L2266 245L2391 245C2507 245 2580 335 2580 428C2580 521 2506 611 2391 611L2167 611C2152 611 2126 611 2126 581C2126 550 2152 550 2167 550L2197 550L2197 61L2167 61C2151 61 2126 61 2126 30ZM2266 306L2266 550L2372 550C2468 550 2511 481 2511 428C2511 375 2468 306 2372 306ZM2677 30C2677 14 2677 -11 2707 -11C2729 -11 2735 3 2744 35C2784 5 2845 -11 2909 -11C3025 -11 3097 77 3097 166C3097 230 3061 272 3049 285C3008 325 2981 332 2903 350L2822 368C2780 380 2742 415 2742 462C2742 513 2791 561 2862 561C2980 561 2995 467 3001 436C3004 414 3015 408 3035 408C3070 408 3070 429 3070 449L3070 581C3070 597 3070 622 3040 622C3016 622 3011 605 3003 575C2962 610 2908 622 2863 622C2752 622 2677 543 2677 458C2677 391 2723 325 2806 301C2810 300 2907 277 2921 274C2949 268 3032 248 3032 161C3032 109 2989 50 2910 50C2882 50 2833 54 2793 81C2751 108 2747 150 2746 168C2745 185 2744 203 2712 203C2677 203 2677 182 2677 162Z" stroke="rgb(0,0,0)" stroke-opacity="1" stroke-width="8" fill="rgb(0,0,0)" fill-opacity="1"></path></g></g></g></g><g><g><g><g transform="matrix(1,0,0,1,462.0832824707031,168.38067626953125)"><path transform="matrix(0.015,0,0,-0.015,0,0)" d="M-4 30C-4 0 23 0 37 0L125 0C140 0 166 0 166 30C166 61 145 61 109 61L109 240C109 329 156 376 197 376C220 376 234 359 234 294L234 61C210 61 185 61 185 30C185 0 212 0 226 0L306 0C321 0 347 0 347 30C347 61 326 61 290 61L290 240C290 329 337 376 378 376C401 376 415 359 415 294L415 61C391 61 366 61 366 30C366 0 393 0 407 0L487 0C502 0 528 0 528 30C528 61 507 61 471 61L471 303C471 323 471 437 382 437C352 437 305 424 277 385C262 419 234 437 201 437C169 437 133 423 109 401C107 431 87 431 69 431L37 431C22 431 -4 431 -4 401C-4 370 17 370 53 370L53 61C17 61 -4 61 -4 30ZM582 216C582 89 677 -6 787 -6C897 -6 992 90 992 216C992 341 899 440 787 440C675 440 582 341 582 216ZM651 223C651 314 716 379 787 379C859 379 923 314 923 223C923 130 861 55 787 55C713 55 651 130 651 223ZM1259 562C1259 534 1281 512 1309 512C1337 512 1359 534 1359 562C1359 590 1337 612 1309 612C1281 612 1259 590 1259 562ZM1128 30C1128 0 1154 0 1169 0L1464 0C1479 0 1505 0 1505 30C1505 61 1479 61 1464 61L1359 61L1359 390C1359 421 1353 431 1319 431L1177 431C1162 431 1136 431 1136 401C1136 370 1162 370 1177 370L1290 370L1290 61L1169 61C1153 61 1128 61 1128 30ZM1607 31C1607 0 1631 0 1647 0L1908 0C1923 0 1949 0 1949 30C1949 61 1923 61 1908 61L1797 61L1797 186C1797 280 1856 376 1977 376C1978 352 1995 332 2020 332C2042 332 2062 348 2062 375C2062 395 2050 437 1967 437C1916 437 1852 419 1797 356L1797 390C1797 421 1791 431 1757 431L1647 431C1632 431 1607 431 1607 401C1607 370 1631 370 1647 370L1728 370L1728 61L1647 61C1632 61 1607 61 1607 31ZM2155 217C2155 95 2256 -6 2385 -6C2517 -6 2564 84 2564 109C2564 137 2535 137 2529 137C2511 137 2503 134 2496 115C2474 64 2420 55 2392 55C2317 55 2242 105 2226 191L2524 191C2545 191 2564 191 2564 228C2564 342 2500 440 2370 440C2251 440 2155 340 2155 217ZM2227 251C2241 324 2300 379 2370 379C2422 379 2484 354 2493 251ZM2681 -60C2681 -71 2686 -94 2722 -95L3050 -95C3086 -95 3093 -73 3093 -61C3093 -51 3088 -25 3052 -25L2723 -25C2685 -25 2681 -51 2681 -60ZM3162 -192C3162 -222 3188 -222 3202 -222L3361 -222C3375 -222 3401 -222 3401 -192C3401 -161 3376 -161 3360 -161L3316 -161L3316 45C3357 3 3400 -6 3432 -6C3541 -6 3638 89 3638 216C3638 339 3549 437 3443 437C3395 437 3350 419 3316 388C3316 417 3314 431 3276 431L3203 431C3187 431 3162 431 3162 400C3162 370 3188 370 3202 370L3247 370L3247 -161L3203 -161C3187 -161 3162 -161 3162 -192ZM3316 191L3316 264C3316 323 3374 376 3437 376C3511 376 3569 303 3569 216C3569 120 3499 55 3429 55C3351 55 3316 143 3316 191ZM3733 30C3733 0 3759 0 3773 0L4102 0C4117 0 4142 0 4142 30C4142 61 4118 61 4102 61L3972 61L3972 570C3972 601 3966 611 3932 611L3774 611C3758 611 3733 611 3733 580C3733 550 3759 550 3773 550L3903 550L3903 61L3774 61C3758 61 3733 61 3733 30ZM4257 216C4257 89 4352 -6 4462 -6C4572 -6 4667 90 4667 216C4667 341 4574 440 4462 440C4350 440 4257 341 4257 216ZM4326 223C4326 314 4391 379 4462 379C4534 379 4598 314 4598 223C4598 130 4536 55 4462 55C4388 55 4326 130 4326 223ZM4750 400C4750 370 4775 370 4790 370L4878 370L4878 126C4878 30 4946 -6 5019 -6C5093 -6 5174 37 5174 126C5174 144 5174 165 5139 165C5106 165 5105 144 5105 127C5104 65 5047 55 5024 55C4947 55 4947 107 4947 132L4947 370L5111 370C5126 370 5151 370 5151 400C5151 431 5127 431 5111 431L4947 431L4947 513C4947 532 4947 554 4913 554C4878 554 4878 533 4878 513L4878 431L4791 431C4775 431 4750 431 4750 400Z" stroke="rgb(0,0,0)" stroke-opacity="1" stroke-width="8" fill="rgb(0,0,0)" fill-opacity="1"></path></g></g></g><g><g><g transform="matrix(1,0,0,1,462.0832824707031,190.58709716796875)"><path transform="matrix(0.015,0,0,-0.015,0,0)" d="M-4 30C-4 0 23 0 37 0L125 0C140 0 166 0 166 30C166 61 145 61 109 61L109 240C109 329 156 376 197 376C220 376 234 359 234 294L234 61C210 61 185 61 185 30C185 0 212 0 226 0L306 0C321 0 347 0 347 30C347 61 326 61 290 61L290 240C290 329 337 376 378 376C401 376 415 359 415 294L415 61C391 61 366 61 366 30C366 0 393 0 407 0L487 0C502 0 528 0 528 30C528 61 507 61 471 61L471 303C471 323 471 437 382 437C352 437 305 424 277 385C262 419 234 437 201 437C169 437 133 423 109 401C107 431 87 431 69 431L37 431C22 431 -4 431 -4 401C-4 370 17 370 53 370L53 61C17 61 -4 61 -4 30ZM582 216C582 89 677 -6 787 -6C897 -6 992 90 992 216C992 341 899 440 787 440C675 440 582 341 582 216ZM651 223C651 314 716 379 787 379C859 379 923 314 923 223C923 130 861 55 787 55C713 55 651 130 651 223ZM1259 562C1259 534 1281 512 1309 512C1337 512 1359 534 1359 562C1359 590 1337 612 1309 612C1281 612 1259 590 1259 562ZM1128 30C1128 0 1154 0 1169 0L1464 0C1479 0 1505 0 1505 30C1505 61 1479 61 1464 61L1359 61L1359 390C1359 421 1353 431 1319 431L1177 431C1162 431 1136 431 1136 401C1136 370 1162 370 1177 370L1290 370L1290 61L1169 61C1153 61 1128 61 1128 30ZM1607 31C1607 0 1631 0 1647 0L1908 0C1923 0 1949 0 1949 30C1949 61 1923 61 1908 61L1797 61L1797 186C1797 280 1856 376 1977 376C1978 352 1995 332 2020 332C2042 332 2062 348 2062 375C2062 395 2050 437 1967 437C1916 437 1852 419 1797 356L1797 390C1797 421 1791 431 1757 431L1647 431C1632 431 1607 431 1607 401C1607 370 1631 370 1647 370L1728 370L1728 61L1647 61C1632 61 1607 61 1607 31ZM2155 217C2155 95 2256 -6 2385 -6C2517 -6 2564 84 2564 109C2564 137 2535 137 2529 137C2511 137 2503 134 2496 115C2474 64 2420 55 2392 55C2317 55 2242 105 2226 191L2524 191C2545 191 2564 191 2564 228C2564 342 2500 440 2370 440C2251 440 2155 340 2155 217ZM2227 251C2241 324 2300 379 2370 379C2422 379 2484 354 2493 251ZM2681 -60C2681 -71 2686 -94 2722 -95L3050 -95C3086 -95 3093 -73 3093 -61C3093 -51 3088 -25 3052 -25L2723 -25C2685 -25 2681 -51 2681 -60ZM3223 216C3223 96 3317 -6 3443 -6C3582 -6 3616 92 3616 109C3616 137 3587 137 3581 137C3565 137 3555 135 3548 115C3542 102 3523 55 3449 55C3364 55 3292 125 3292 216C3292 264 3320 379 3455 379C3476 379 3515 379 3515 370C3516 335 3535 321 3559 321C3583 321 3604 338 3604 367C3604 440 3500 440 3455 440C3283 440 3223 304 3223 216ZM3687 30C3687 0 3713 0 3727 0L3886 0C3900 0 3926 0 3926 30C3926 61 3901 61 3885 61L3841 61L3841 238C3841 338 3915 376 3966 376C4019 376 4033 348 4033 288L4033 61L3994 61C3978 61 3953 61 3953 30C3953 0 3980 0 3994 0L4147 0C4161 0 4187 0 4187 30C4187 61 4162 61 4146 61L4102 61L4102 293C4102 394 4051 437 3972 437C3905 437 3860 403 3841 384L3841 570C3841 601 3835 611 3801 611L3728 611C3712 611 3687 611 3687 580C3687 550 3713 550 3727 550L3772 550L3772 61L3728 61C3712 61 3687 61 3687 30ZM4255 217C4255 95 4356 -6 4485 -6C4617 -6 4664 84 4664 109C4664 137 4635 137 4629 137C4611 137 4603 134 4596 115C4574 64 4520 55 4492 55C4417 55 4342 105 4326 191L4624 191C4645 191 4664 191 4664 228C4664 342 4600 440 4470 440C4351 440 4255 340 4255 217ZM4327 251C4341 324 4400 379 4470 379C4522 379 4584 354 4593 251ZM4757 31C4757 0 4781 0 4797 0L5058 0C5073 0 5099 0 5099 30C5099 61 5073 61 5058 61L4947 61L4947 186C4947 280 5006 376 5127 376C5128 352 5145 332 5170 332C5192 332 5212 348 5212 375C5212 395 5200 437 5117 437C5066 437 5002 419 4947 356L4947 390C4947 421 4941 431 4907 431L4797 431C4782 431 4757 431 4757 401C4757 370 4781 370 4797 370L4878 370L4878 61L4797 61C4782 61 4757 61 4757 31ZM5262 30C5262 0 5288 0 5302 0L5461 0C5475 0 5501 0 5501 30C5501 61 5476 61 5460 61L5416 61L5416 238C5416 338 5490 376 5541 376C5594 376 5608 348 5608 288L5608 61L5569 61C5553 61 5528 61 5528 30C5528 0 5555 0 5569 0L5722 0C5736 0 5762 0 5762 30C5762 61 5737 61 5721 61L5677 61L5677 293C5677 394 5626 437 5547 437C5480 437 5435 403 5416 384C5416 416 5416 431 5376 431L5303 431C5287 431 5262 431 5262 400C5262 370 5288 370 5302 370L5347 370L5347 61L5303 61C5287 61 5262 61 5262 30Z" stroke="rgb(0,0,0)" stroke-opacity="1" stroke-width="8" fill="rgb(0,0,0)" fill-opacity="1"></path></g></g></g><g><g><g transform="matrix(1,0,0,1,462.0832824707031,212.79354858398438)"><path transform="matrix(0.015,0,0,-0.015,0,0)" d="M-4 30C-4 0 23 0 37 0L125 0C140 0 166 0 166 30C166 61 145 61 109 61L109 240C109 329 156 376 197 376C220 376 234 359 234 294L234 61C210 61 185 61 185 30C185 0 212 0 226 0L306 0C321 0 347 0 347 30C347 61 326 61 290 61L290 240C290 329 337 376 378 376C401 376 415 359 415 294L415 61C391 61 366 61 366 30C366 0 393 0 407 0L487 0C502 0 528 0 528 30C528 61 507 61 471 61L471 303C471 323 471 437 382 437C352 437 305 424 277 385C262 419 234 437 201 437C169 437 133 423 109 401C107 431 87 431 69 431L37 431C22 431 -4 431 -4 401C-4 370 17 370 53 370L53 61C17 61 -4 61 -4 30ZM582 216C582 89 677 -6 787 -6C897 -6 992 90 992 216C992 341 899 440 787 440C675 440 582 341 582 216ZM651 223C651 314 716 379 787 379C859 379 923 314 923 223C923 130 861 55 787 55C713 55 651 130 651 223ZM1259 562C1259 534 1281 512 1309 512C1337 512 1359 534 1359 562C1359 590 1337 612 1309 612C1281 612 1259 590 1259 562ZM1128 30C1128 0 1154 0 1169 0L1464 0C1479 0 1505 0 1505 30C1505 61 1479 61 1464 61L1359 61L1359 390C1359 421 1353 431 1319 431L1177 431C1162 431 1136 431 1136 401C1136 370 1162 370 1177 370L1290 370L1290 61L1169 61C1153 61 1128 61 1128 30ZM1607 31C1607 0 1631 0 1647 0L1908 0C1923 0 1949 0 1949 30C1949 61 1923 61 1908 61L1797 61L1797 186C1797 280 1856 376 1977 376C1978 352 1995 332 2020 332C2042 332 2062 348 2062 375C2062 395 2050 437 1967 437C1916 437 1852 419 1797 356L1797 390C1797 421 1791 431 1757 431L1647 431C1632 431 1607 431 1607 401C1607 370 1631 370 1647 370L1728 370L1728 61L1647 61C1632 61 1607 61 1607 31ZM2155 217C2155 95 2256 -6 2385 -6C2517 -6 2564 84 2564 109C2564 137 2535 137 2529 137C2511 137 2503 134 2496 115C2474 64 2420 55 2392 55C2317 55 2242 105 2226 191L2524 191C2545 191 2564 191 2564 228C2564 342 2500 440 2370 440C2251 440 2155 340 2155 217ZM2227 251C2241 324 2300 379 2370 379C2422 379 2484 354 2493 251ZM2681 -60C2681 -71 2686 -94 2722 -95L3050 -95C3086 -95 3093 -73 3093 -61C3093 -51 3088 -25 3052 -25L2723 -25C2685 -25 2681 -51 2681 -60ZM3205 128C3205 59 3268 -6 3370 -6C3407 -6 3469 1 3516 32C3538 1 3586 0 3624 0C3652 0 3674 0 3674 31C3674 61 3649 61 3634 61C3592 61 3582 66 3574 69L3574 285C3574 356 3520 440 3376 440C3333 440 3231 440 3231 367C3231 337 3252 321 3276 321C3291 321 3319 330 3320 367C3320 375 3321 376 3341 378C3355 379 3368 379 3377 379C3453 379 3505 348 3505 277C3328 274 3205 224 3205 128ZM3274 128C3274 177 3360 214 3505 218L3505 134C3505 111 3505 90 3466 72C3430 55 3385 55 3377 55C3315 55 3274 89 3274 128ZM3687 30C3687 0 3713 0 3727 0L3886 0C3900 0 3926 0 3926 30C3926 61 3901 61 3885 61L3841 61L3841 238C3841 338 3915 376 3966 376C4019 376 4033 348 4033 288L4033 61L3994 61C3978 61 3953 61 3953 30C3953 0 3980 0 3994 0L4147 0C4161 0 4187 0 4187 30C4187 61 4162 61 4146 61L4102 61L4102 293C4102 394 4051 437 3972 437C3905 437 3860 403 3841 384C3841 416 3841 431 3801 431L3728 431C3712 431 3687 431 3687 400C3687 370 3713 370 3727 370L3772 370L3772 61L3728 61C3712 61 3687 61 3687 30ZM4255 128C4255 59 4318 -6 4420 -6C4457 -6 4519 1 4566 32C4588 1 4636 0 4674 0C4702 0 4724 0 4724 31C4724 61 4699 61 4684 61C4642 61 4632 66 4624 69L4624 285C4624 356 4570 440 4426 440C4383 440 4281 440 4281 367C4281 337 4302 321 4326 321C4341 321 4369 330 4370 367C4370 375 4371 376 4391 378C4405 379 4418 379 4427 379C4503 379 4555 348 4555 277C4378 274 4255 224 4255 128ZM4324 128C4324 177 4410 214 4555 218L4555 134C4555 111 4555 90 4516 72C4480 55 4435 55 4427 55C4365 55 4324 89 4324 128ZM4783 30C4783 0 4809 0 4823 0L5152 0C5167 0 5192 0 5192 30C5192 61 5168 61 5152 61L5022 61L5022 570C5022 601 5016 611 4982 611L4824 611C4808 611 4783 611 4783 580C4783 550 4809 550 4823 550L4953 550L4953 61L4824 61C4808 61 4783 61 4783 30ZM5276 400C5276 370 5301 370 5316 370L5347 370L5489 13C5493 3 5493 1 5493 0C5493 -2 5468 -84 5455 -109C5426 -164 5390 -166 5375 -167C5375 -166 5380 -158 5380 -145C5380 -120 5362 -102 5337 -102C5310 -102 5293 -120 5293 -146C5293 -188 5327 -228 5376 -228C5476 -228 5521 -96 5525 -85L5680 370L5710 370C5725 370 5750 370 5750 400C5750 431 5726 431 5710 431L5593 431C5578 431 5553 431 5553 401C5553 370 5577 370 5593 370L5621 370L5549 157C5536 120 5530 102 5523 71L5522 71C5517 90 5508 111 5501 130L5408 370L5433 370C5448 370 5473 370 5473 400C5473 431 5449 431 5433 431L5316 431C5300 431 5276 431 5276 400ZM5847 35C5847 19 5847 -6 5877 -6C5886 -6 5902 -5 5914 32C5963 -4 6016 -6 6044 -6C6202 -6 6234 77 6234 125C6234 229 6105 250 6073 255C6050 259 6030 262 6005 267C5976 271 5908 283 5908 322C5908 348 5940 379 6035 379C6118 379 6132 349 6135 323C6136 306 6138 289 6169 289C6204 289 6204 310 6204 330L6204 399C6204 415 6204 440 6174 440C6150 440 6146 426 6144 419C6100 440 6056 440 6037 440C5870 440 5847 358 5847 322C5847 230 5952 213 6044 199C6093 191 6173 178 6173 125C6173 88 6136 55 6045 55C5998 55 5942 66 5917 144C5912 162 5908 173 5882 173C5847 173 5847 152 5847 132ZM6509 562C6509 534 6531 512 6559 512C6587 512 6609 534 6609 562C6609 590 6587 612 6559 612C6531 612 6509 590 6509 562ZM6378 30C6378 0 6404 0 6419 0L6714 0C6729 0 6755 0 6755 30C6755 61 6729 61 6714 61L6609 61L6609 390C6609 421 6603 431 6569 431L6427 431C6412 431 6386 431 6386 401C6386 370 6412 370 6427 370L6540 370L6540 61L6419 61C6403 61 6378 61 6378 30ZM6897 35C6897 19 6897 -6 6927 -6C6936 -6 6952 -5 6964 32C7013 -4 7066 -6 7094 -6C7252 -6 7284 77 7284 125C7284 229 7155 250 7123 255C7100 259 7080 262 7055 267C7026 271 6958 283 6958 322C6958 348 6990 379 7085 379C7168 379 7182 349 7185 323C7186 306 7188 289 7219 289C7254 289 7254 310 7254 330L7254 399C7254 415 7254 440 7224 440C7200 440 7196 426 7194 419C7150 440 7106 440 7087 440C6920 440 6897 358 6897 322C6897 230 7002 213 7094 199C7143 191 7223 178 7223 125C7223 88 7186 55 7095 55C7048 55 6992 66 6967 144C6962 162 6958 173 6932 173C6897 173 6897 152 6897 132Z" stroke="rgb(0,0,0)" stroke-opacity="1" stroke-width="8" fill="rgb(0,0,0)" fill-opacity="1"></path></g></g></g><g><g><g transform="matrix(1,0,0,1,462.0832824707031,234.99996948242188)"><path transform="matrix(0.015,0,0,-0.015,0,0)" d="M-4 30C-4 0 23 0 37 0L125 0C140 0 166 0 166 30C166 61 145 61 109 61L109 240C109 329 156 376 197 376C220 376 234 359 234 294L234 61C210 61 185 61 185 30C185 0 212 0 226 0L306 0C321 0 347 0 347 30C347 61 326 61 290 61L290 240C290 329 337 376 378 376C401 376 415 359 415 294L415 61C391 61 366 61 366 30C366 0 393 0 407 0L487 0C502 0 528 0 528 30C528 61 507 61 471 61L471 303C471 323 471 437 382 437C352 437 305 424 277 385C262 419 234 437 201 437C169 437 133 423 109 401C107 431 87 431 69 431L37 431C22 431 -4 431 -4 401C-4 370 17 370 53 370L53 61C17 61 -4 61 -4 30ZM582 216C582 89 677 -6 787 -6C897 -6 992 90 992 216C992 341 899 440 787 440C675 440 582 341 582 216ZM651 223C651 314 716 379 787 379C859 379 923 314 923 223C923 130 861 55 787 55C713 55 651 130 651 223ZM1259 562C1259 534 1281 512 1309 512C1337 512 1359 534 1359 562C1359 590 1337 612 1309 612C1281 612 1259 590 1259 562ZM1128 30C1128 0 1154 0 1169 0L1464 0C1479 0 1505 0 1505 30C1505 61 1479 61 1464 61L1359 61L1359 390C1359 421 1353 431 1319 431L1177 431C1162 431 1136 431 1136 401C1136 370 1162 370 1177 370L1290 370L1290 61L1169 61C1153 61 1128 61 1128 30ZM1607 31C1607 0 1631 0 1647 0L1908 0C1923 0 1949 0 1949 30C1949 61 1923 61 1908 61L1797 61L1797 186C1797 280 1856 376 1977 376C1978 352 1995 332 2020 332C2042 332 2062 348 2062 375C2062 395 2050 437 1967 437C1916 437 1852 419 1797 356L1797 390C1797 421 1791 431 1757 431L1647 431C1632 431 1607 431 1607 401C1607 370 1631 370 1647 370L1728 370L1728 61L1647 61C1632 61 1607 61 1607 31ZM2155 217C2155 95 2256 -6 2385 -6C2517 -6 2564 84 2564 109C2564 137 2535 137 2529 137C2511 137 2503 134 2496 115C2474 64 2420 55 2392 55C2317 55 2242 105 2226 191L2524 191C2545 191 2564 191 2564 228C2564 342 2500 440 2370 440C2251 440 2155 340 2155 217ZM2227 251C2241 324 2300 379 2370 379C2422 379 2484 354 2493 251ZM2681 -60C2681 -71 2686 -94 2722 -95L3050 -95C3086 -95 3093 -73 3093 -61C3093 -51 3088 -25 3052 -25L2723 -25C2685 -25 2681 -51 2681 -60ZM3192 31C3192 0 3218 0 3233 0L3504 0C3519 0 3545 0 3545 30C3545 61 3519 61 3504 61L3403 61L3403 370L3525 370C3540 370 3565 370 3565 400C3565 431 3541 431 3525 431L3403 431L3403 478C3403 556 3470 556 3500 556C3500 552 3509 513 3544 513C3564 513 3587 529 3587 557C3587 617 3507 617 3491 617C3411 617 3334 571 3334 484L3334 431L3234 431C3218 431 3193 431 3193 400C3193 370 3218 370 3233 370L3334 370L3334 61L3233 61C3218 61 3192 61 3192 31ZM3733 30C3733 0 3759 0 3773 0L4102 0C4117 0 4142 0 4142 30C4142 61 4118 61 4102 61L3972 61L3972 570C3972 601 3966 611 3932 611L3774 611C3758 611 3733 611 3733 580C3733 550 3759 550 3773 550L3903 550L3903 61L3774 61C3758 61 3733 61 3733 30ZM4255 128C4255 59 4318 -6 4420 -6C4457 -6 4519 1 4566 32C4588 1 4636 0 4674 0C4702 0 4724 0 4724 31C4724 61 4699 61 4684 61C4642 61 4632 66 4624 69L4624 285C4624 356 4570 440 4426 440C4383 440 4281 440 4281 367C4281 337 4302 321 4326 321C4341 321 4369 330 4370 367C4370 375 4371 376 4391 378C4405 379 4418 379 4427 379C4503 379 4555 348 4555 277C4378 274 4255 224 4255 128ZM4324 128C4324 177 4410 214 4555 218L4555 134C4555 111 4555 90 4516 72C4480 55 4435 55 4427 55C4365 55 4324 89 4324 128ZM4750 400C4750 370 4775 370 4790 370L4878 370L4878 126C4878 30 4946 -6 5019 -6C5093 -6 5174 37 5174 126C5174 144 5174 165 5139 165C5106 165 5105 144 5105 127C5104 65 5047 55 5024 55C4947 55 4947 107 4947 132L4947 370L5111 370C5126 370 5151 370 5151 400C5151 431 5127 431 5111 431L4947 431L4947 513C4947 532 4947 554 4913 554C4878 554 4878 533 4878 513L4878 431L4791 431C4775 431 4750 431 4750 400Z" stroke="rgb(0,0,0)" stroke-opacity="1" stroke-width="8" fill="rgb(0,0,0)" fill-opacity="1"></path></g></g></g><g><g><g transform="matrix(1,0,0,1,462.0832824707031,257.2064208984375)"><path transform="matrix(0.015,0,0,-0.015,0,0)" d="M-11 38C-11 19 -6 0 27 0L133 0C167 0 170 22 170 38C170 75 145 75 132 75L114 75L114 232C114 315 145 373 192 373C227 373 229 329 229 291L229 75C205 75 187 67 188 39C188 29 186 0 226 0L314 0C346 0 354 19 354 38C354 74 326 75 315 75L297 75L297 232C297 318 330 373 375 373C410 373 412 329 412 291L412 75C388 75 370 67 371 39C371 29 369 0 409 0L499 0C510 0 536 2 536 37C536 49 537 75 496 75L479 75L479 297C479 329 478 361 467 391C449 437 413 448 387 448C372 448 320 445 283 394C276 408 257 448 204 448C164 448 136 431 114 410C112 441 89 445 76 445C72 445 68 444 67 444L26 444C-4 444 -11 426 -11 410C-11 396 -12 369 28 369L46 369L46 75L26 75C-9 75 -11 52 -11 38ZM577 222C577 84 662 -4 786 -4C911 -4 997 82 997 222C997 363 910 450 787 450C664 450 577 366 577 222ZM661 231C661 336 728 375 787 375C861 375 913 320 913 230C913 128 858 71 787 71C735 71 661 108 661 231ZM1247 565C1247 547 1260 520 1306 520C1354 520 1366 547 1366 565C1366 592 1342 611 1307 611C1259 611 1247 583 1247 565ZM1121 38C1121 2 1147 0 1158 0L1474 0C1507 0 1512 19 1512 38C1513 58 1504 75 1473 75L1366 75L1366 405C1366 422 1364 444 1330 444L1169 444C1129 444 1129 419 1129 404C1129 369 1155 369 1170 369L1283 369L1283 75L1160 75C1135 75 1121 68 1121 38ZM1599 40C1599 24 1599 0 1637 0L1916 0C1930 0 1956 1 1956 36C1956 75 1930 75 1917 75L1804 75L1804 173C1804 307 1887 373 1970 373C1973 373 1977 372 1980 372C1988 348 2007 342 2021 342C2044 342 2062 360 2062 384C2062 410 2043 448 1968 448C1895 448 1837 409 1804 365L1804 402C1804 412 1806 444 1768 444L1638 444C1619 444 1599 439 1599 410C1599 393 1599 369 1637 369L1720 369L1720 75L1637 75C1607 75 1599 57 1599 40ZM2147 224C2147 87 2242 -4 2383 -4C2508 -4 2563 82 2563 116C2563 146 2536 147 2525 147L2522 147C2484 147 2489 135 2474 111C2452 74 2418 71 2402 71C2340 71 2261 94 2235 183L2525 183C2538 183 2564 185 2564 218C2563 424 2437 450 2369 450C2239 450 2147 361 2147 224ZM2233 252C2242 326 2292 375 2369 375C2429 375 2472 339 2478 252ZM2681 -72C2681 -83 2687 -114 2730 -114L3044 -114C3087 -114 3093 -83 3093 -72C3093 -60 3086 -30 3044 -30L2730 -30C2687 -30 2681 -60 2681 -72ZM3200 36C3201 0 3227 0 3238 0L3586 0C3601 0 3624 2 3624 38C3624 75 3599 75 3585 75L3454 75L3454 570C3454 582 3455 611 3416 611L3239 611C3218 611 3200 604 3200 575C3200 537 3222 535 3238 535L3370 535L3370 75L3240 75C3222 75 3200 74 3200 36ZM3725 36C3726 0 3752 0 3763 0L4111 0C4126 0 4149 2 4149 38C4149 75 4124 75 4110 75L3979 75L3979 570C3979 582 3980 611 3941 611L3764 611C3743 611 3725 604 3725 575C3725 537 3747 535 3763 535L3895 535L3895 75L3765 75C3747 75 3725 74 3725 36Z" stroke="rgb(155,155,155)" stroke-opacity="1" stroke-width="8" fill="rgb(155,155,155)" fill-opacity="1"></path></g></g></g><g><g><g transform="matrix(1,0,0,1,462.0832824707031,279.412841796875)"><path transform="matrix(0.015,0,0,-0.015,0,0)" d="M-4 30C-4 0 23 0 37 0L125 0C140 0 166 0 166 30C166 61 145 61 109 61L109 240C109 329 156 376 197 376C220 376 234 359 234 294L234 61C210 61 185 61 185 30C185 0 212 0 226 0L306 0C321 0 347 0 347 30C347 61 326 61 290 61L290 240C290 329 337 376 378 376C401 376 415 359 415 294L415 61C391 61 366 61 366 30C366 0 393 0 407 0L487 0C502 0 528 0 528 30C528 61 507 61 471 61L471 303C471 323 471 437 382 437C352 437 305 424 277 385C262 419 234 437 201 437C169 437 133 423 109 401C107 431 87 431 69 431L37 431C22 431 -4 431 -4 401C-4 370 17 370 53 370L53 61C17 61 -4 61 -4 30ZM582 216C582 89 677 -6 787 -6C897 -6 992 90 992 216C992 341 899 440 787 440C675 440 582 341 582 216ZM651 223C651 314 716 379 787 379C859 379 923 314 923 223C923 130 861 55 787 55C713 55 651 130 651 223ZM1259 562C1259 534 1281 512 1309 512C1337 512 1359 534 1359 562C1359 590 1337 612 1309 612C1281 612 1259 590 1259 562ZM1128 30C1128 0 1154 0 1169 0L1464 0C1479 0 1505 0 1505 30C1505 61 1479 61 1464 61L1359 61L1359 390C1359 421 1353 431 1319 431L1177 431C1162 431 1136 431 1136 401C1136 370 1162 370 1177 370L1290 370L1290 61L1169 61C1153 61 1128 61 1128 30ZM1607 31C1607 0 1631 0 1647 0L1908 0C1923 0 1949 0 1949 30C1949 61 1923 61 1908 61L1797 61L1797 186C1797 280 1856 376 1977 376C1978 352 1995 332 2020 332C2042 332 2062 348 2062 375C2062 395 2050 437 1967 437C1916 437 1852 419 1797 356L1797 390C1797 421 1791 431 1757 431L1647 431C1632 431 1607 431 1607 401C1607 370 1631 370 1647 370L1728 370L1728 61L1647 61C1632 61 1607 61 1607 31ZM2155 217C2155 95 2256 -6 2385 -6C2517 -6 2564 84 2564 109C2564 137 2535 137 2529 137C2511 137 2503 134 2496 115C2474 64 2420 55 2392 55C2317 55 2242 105 2226 191L2524 191C2545 191 2564 191 2564 228C2564 342 2500 440 2370 440C2251 440 2155 340 2155 217ZM2227 251C2241 324 2300 379 2370 379C2422 379 2484 354 2493 251ZM2681 -60C2681 -71 2686 -94 2722 -95L3050 -95C3086 -95 3093 -73 3093 -61C3093 -51 3088 -25 3052 -25L2723 -25C2685 -25 2681 -51 2681 -60ZM3162 580C3162 550 3188 550 3202 550L3247 550L3247 41C3247 21 3247 0 3282 0C3316 0 3316 20 3316 45C3357 3 3400 -6 3432 -6C3541 -6 3638 89 3638 216C3638 339 3549 437 3443 437C3395 437 3350 419 3316 388L3316 570C3316 601 3310 611 3276 611L3203 611C3187 611 3162 611 3162 580ZM3316 191L3316 264C3316 323 3374 376 3437 376C3511 376 3569 303 3569 216C3569 120 3499 55 3429 55C3351 55 3316 143 3316 191ZM3730 217C3730 95 3831 -6 3960 -6C4092 -6 4139 84 4139 109C4139 137 4110 137 4104 137C4086 137 4078 134 4071 115C4049 64 3995 55 3967 55C3892 55 3817 105 3801 191L4099 191C4120 191 4139 191 4139 228C4139 342 4075 440 3945 440C3826 440 3730 340 3730 217ZM3802 251C3816 324 3875 379 3945 379C3997 379 4059 354 4068 251ZM4232 31C4232 0 4256 0 4272 0L4533 0C4548 0 4574 0 4574 30C4574 61 4548 61 4533 61L4422 61L4422 186C4422 280 4481 376 4602 376C4603 352 4620 332 4645 332C4667 332 4687 348 4687 375C4687 395 4675 437 4592 437C4541 437 4477 419 4422 356L4422 390C4422 421 4416 431 4382 431L4272 431C4257 431 4232 431 4232 401C4232 370 4256 370 4272 370L4353 370L4353 61L4272 61C4257 61 4232 61 4232 31ZM4757 31C4757 0 4781 0 4797 0L5058 0C5073 0 5099 0 5099 30C5099 61 5073 61 5058 61L4947 61L4947 186C4947 280 5006 376 5127 376C5128 352 5145 332 5170 332C5192 332 5212 348 5212 375C5212 395 5200 437 5117 437C5066 437 5002 419 4947 356L4947 390C4947 421 4941 431 4907 431L4797 431C4782 431 4757 431 4757 401C4757 370 4781 370 4797 370L4878 370L4878 61L4797 61C4782 61 4757 61 4757 31ZM5459 562C5459 534 5481 512 5509 512C5537 512 5559 534 5559 562C5559 590 5537 612 5509 612C5481 612 5459 590 5459 562ZM5328 30C5328 0 5354 0 5369 0L5664 0C5679 0 5705 0 5705 30C5705 61 5679 61 5664 61L5559 61L5559 390C5559 421 5553 431 5519 431L5377 431C5362 431 5336 431 5336 401C5336 370 5362 370 5377 370L5490 370L5490 61L5369 61C5353 61 5328 61 5328 30Z" stroke="rgb(155,155,155)" stroke-opacity="1" stroke-width="8" fill="rgb(155,155,155)" fill-opacity="1"></path></g></g></g></g><g><g><g><g transform="matrix(1,0,0,1,135.54922485351562,330.1230773925781)"><path transform="matrix(0.015,0,0,-0.015,0,0)" d="M73 216C73 96 167 -6 293 -6C432 -6 466 92 466 109C466 137 437 137 431 137C415 137 405 135 398 115C392 102 373 55 299 55C214 55 142 125 142 216C142 264 170 379 305 379C326 379 365 379 365 370C366 335 385 321 409 321C433 321 454 338 454 367C454 440 350 440 305 440C133 440 73 304 73 216ZM582 216C582 89 677 -6 787 -6C897 -6 992 90 992 216C992 341 899 440 787 440C675 440 582 341 582 216ZM651 223C651 314 716 379 787 379C859 379 923 314 923 223C923 130 861 55 787 55C713 55 651 130 651 223ZM1062 30C1062 0 1088 0 1102 0L1261 0C1275 0 1301 0 1301 30C1301 61 1276 61 1260 61L1216 61L1216 238C1216 338 1290 376 1341 376C1394 376 1408 348 1408 288L1408 61L1369 61C1353 61 1328 61 1328 30C1328 0 1355 0 1369 0L1522 0C1536 0 1562 0 1562 30C1562 61 1537 61 1521 61L1477 61L1477 293C1477 394 1426 437 1347 437C1280 437 1235 403 1216 384C1216 416 1216 431 1176 431L1103 431C1087 431 1062 431 1062 400C1062 370 1088 370 1102 370L1147 370L1147 61L1103 61C1087 61 1062 61 1062 30ZM1617 31C1617 0 1643 0 1658 0L1929 0C1944 0 1970 0 1970 30C1970 61 1944 61 1929 61L1828 61L1828 370L1950 370C1965 370 1990 370 1990 400C1990 431 1966 431 1950 431L1828 431L1828 478C1828 556 1895 556 1925 556C1925 552 1934 513 1969 513C1989 513 2012 529 2012 557C2012 617 1932 617 1916 617C1836 617 1759 571 1759 484L1759 431L1659 431C1643 431 1618 431 1618 400C1618 370 1643 370 1658 370L1759 370L1759 61L1658 61C1643 61 1617 61 1617 31ZM2309 562C2309 534 2331 512 2359 512C2387 512 2409 534 2409 562C2409 590 2387 612 2359 612C2331 612 2309 590 2309 562ZM2178 30C2178 0 2204 0 2219 0L2514 0C2529 0 2555 0 2555 30C2555 61 2529 61 2514 61L2409 61L2409 390C2409 421 2403 431 2369 431L2227 431C2212 431 2186 431 2186 401C2186 370 2212 370 2227 370L2340 370L2340 61L2219 61C2203 61 2178 61 2178 30ZM2654 -82C2654 -168 2759 -229 2887 -229C3015 -229 3120 -167 3120 -82C3120 -45 3102 5 3051 32C3038 39 2996 61 2906 61L2836 61C2828 61 2815 61 2807 63C2792 63 2786 63 2774 77C2763 91 2762 111 2762 113C2762 117 2764 131 2768 141C2771 139 2809 116 2858 116C2950 116 3023 188 3023 277C3023 307 3014 336 2997 364C3018 376 3042 380 3055 381C3061 354 3084 347 3094 347C3111 347 3134 359 3134 388C3134 411 3115 442 3061 442C3050 442 3001 441 2955 407C2939 418 2904 437 2858 437C2764 437 2693 362 2693 277C2693 234 2710 201 2725 182C2714 166 2705 144 2705 114C2705 79 2719 54 2728 42C2654 -3 2654 -71 2654 -82ZM2712 -82C2712 -64 2721 -32 2753 -12C2778 4 2787 4 2860 4C2949 4 3062 4 3062 -82C3062 -126 2987 -169 2887 -169C2787 -169 2712 -126 2712 -82ZM2762 276C2762 333 2806 377 2858 377C2912 377 2954 330 2954 277C2954 220 2910 176 2858 176C2804 176 2762 223 2762 276Z" stroke="rgb(0,0,0)" stroke-opacity="1" stroke-width="8" fill="rgb(0,0,0)" fill-opacity="1"></path></g></g></g></g><g><g><g><g transform="matrix(1,0,0,1,276.5151062011719,336.7329406738281)"><path transform="matrix(0.015,0,0,-0.015,0,0)" d="M55 128C55 59 118 -6 220 -6C257 -6 319 1 366 32C388 1 436 0 474 0C502 0 524 0 524 31C524 61 499 61 484 61C442 61 432 66 424 69L424 285C424 356 370 440 226 440C183 440 81 440 81 367C81 337 102 321 126 321C141 321 169 330 170 367C170 375 171 376 191 378C205 379 218 379 227 379C303 379 355 348 355 277C178 274 55 224 55 128ZM124 128C124 177 210 214 355 218L355 134C355 111 355 90 316 72C280 55 235 55 227 55C165 55 124 89 124 128ZM537 580C537 550 563 550 577 550L622 550L622 41C622 21 622 0 657 0C691 0 691 20 691 45C732 3 775 -6 807 -6C916 -6 1013 89 1013 216C1013 339 924 437 818 437C770 437 725 419 691 388L691 570C691 601 685 611 651 611L578 611C562 611 537 611 537 580ZM691 191L691 264C691 323 749 376 812 376C886 376 944 303 944 216C944 120 874 55 804 55C726 55 691 143 691 191ZM1784 562C1784 534 1806 512 1834 512C1862 512 1884 534 1884 562C1884 590 1862 612 1834 612C1806 612 1784 590 1784 562ZM1653 30C1653 0 1679 0 1694 0L1989 0C2004 0 2030 0 2030 30C2030 61 2004 61 1989 61L1884 61L1884 390C1884 421 1878 431 1844 431L1702 431C1687 431 1661 431 1661 401C1661 370 1687 370 1702 370L1815 370L1815 61L1694 61C1678 61 1653 61 1653 30ZM2112 30C2112 0 2138 0 2152 0L2311 0C2325 0 2351 0 2351 30C2351 61 2326 61 2310 61L2266 61L2266 238C2266 338 2340 376 2391 376C2444 376 2458 348 2458 288L2458 61L2419 61C2403 61 2378 61 2378 30C2378 0 2405 0 2419 0L2572 0C2586 0 2612 0 2612 30C2612 61 2587 61 2571 61L2527 61L2527 293C2527 394 2476 437 2397 437C2330 437 2285 403 2266 384C2266 416 2266 431 2226 431L2153 431C2137 431 2112 431 2112 400C2112 370 2138 370 2152 370L2197 370L2197 61L2153 61C2137 61 2112 61 2112 30ZM2834 562C2834 534 2856 512 2884 512C2912 512 2934 534 2934 562C2934 590 2912 612 2884 612C2856 612 2834 590 2834 562ZM2703 30C2703 0 2729 0 2744 0L3039 0C3054 0 3080 0 3080 30C3080 61 3054 61 3039 61L2934 61L2934 390C2934 421 2928 431 2894 431L2752 431C2737 431 2711 431 2711 401C2711 370 2737 370 2752 370L2865 370L2865 61L2744 61C2728 61 2703 61 2703 30ZM3175 400C3175 370 3200 370 3215 370L3303 370L3303 126C3303 30 3371 -6 3444 -6C3518 -6 3599 37 3599 126C3599 144 3599 165 3564 165C3531 165 3530 144 3530 127C3529 65 3472 55 3449 55C3372 55 3372 107 3372 132L3372 370L3536 370C3551 370 3576 370 3576 400C3576 431 3552 431 3536 431L3372 431L3372 513C3372 532 3372 554 3338 554C3303 554 3303 533 3303 513L3303 431L3216 431C3200 431 3175 431 3175 400ZM3732 216C3732 89 3827 -6 3937 -6C4047 -6 4142 90 4142 216C4142 341 4049 440 3937 440C3825 440 3732 341 3732 216ZM3801 223C3801 314 3866 379 3937 379C4009 379 4073 314 4073 223C4073 130 4011 55 3937 55C3863 55 3801 130 3801 223ZM4737 30C4737 0 4763 0 4777 0L4936 0C4950 0 4976 0 4976 30C4976 61 4951 61 4935 61L4891 61L4891 238C4891 338 4965 376 5016 376C5069 376 5083 348 5083 288L5083 61L5044 61C5028 61 5003 61 5003 30C5003 0 5030 0 5044 0L5197 0C5211 0 5237 0 5237 30C5237 61 5212 61 5196 61L5152 61L5152 293C5152 394 5101 437 5022 437C4955 437 4910 403 4891 384L4891 570C4891 601 4885 611 4851 611L4778 611C4762 611 4737 611 4737 580C4737 550 4763 550 4777 550L4822 550L4822 61L4778 61C4762 61 4737 61 4737 30ZM5282 31C5282 0 5306 0 5322 0L5583 0C5598 0 5624 0 5624 30C5624 61 5598 61 5583 61L5472 61L5472 186C5472 280 5531 376 5652 376C5653 352 5670 332 5695 332C5717 332 5737 348 5737 375C5737 395 5725 437 5642 437C5591 437 5527 419 5472 356L5472 390C5472 421 5466 431 5432 431L5322 431C5307 431 5282 431 5282 401C5282 370 5306 370 5322 370L5403 370L5403 61L5322 61C5307 61 5282 61 5282 31ZM5831 -60C5831 -71 5836 -94 5872 -95L6200 -95C6236 -95 6243 -73 6243 -61C6243 -51 6238 -25 6202 -25L5873 -25C5835 -25 5831 -51 5831 -60ZM6336 215C6336 91 6426 -6 6532 -6C6588 -6 6630 21 6658 50C6658 14 6658 0 6698 0L6771 0C6787 0 6812 0 6812 31C6812 61 6786 61 6772 61L6727 61L6727 570C6727 601 6721 611 6687 611L6614 611C6598 611 6573 611 6573 580C6573 550 6599 550 6613 550L6658 550L6658 392C6625 421 6584 437 6541 437C6432 437 6336 342 6336 215ZM6405 215C6405 311 6475 376 6545 376C6609 376 6658 320 6658 265L6658 194C6658 138 6613 55 6536 55C6465 55 6405 126 6405 215ZM6880 128C6880 59 6943 -6 7045 -6C7082 -6 7144 1 7191 32C7213 1 7261 0 7299 0C7327 0 7349 0 7349 31C7349 61 7324 61 7309 61C7267 61 7257 66 7249 69L7249 285C7249 356 7195 440 7051 440C7008 440 6906 440 6906 367C6906 337 6927 321 6951 321C6966 321 6994 330 6995 367C6995 375 6996 376 7016 378C7030 379 7043 379 7052 379C7128 379 7180 348 7180 277C7003 274 6880 224 6880 128ZM6949 128C6949 177 7035 214 7180 218L7180 134C7180 111 7180 90 7141 72C7105 55 7060 55 7052 55C6990 55 6949 89 6949 128ZM7375 400C7375 370 7400 370 7415 370L7503 370L7503 126C7503 30 7571 -6 7644 -6C7718 -6 7799 37 7799 126C7799 144 7799 165 7764 165C7731 165 7730 144 7730 127C7729 65 7672 55 7649 55C7572 55 7572 107 7572 132L7572 370L7736 370C7751 370 7776 370 7776 400C7776 431 7752 431 7736 431L7572 431L7572 513C7572 532 7572 554 7538 554C7503 554 7503 533 7503 513L7503 431L7416 431C7400 431 7375 431 7375 400Z" stroke="rgb(155,155,155)" stroke-opacity="1" stroke-width="8" fill="rgb(155,155,155)" fill-opacity="1"></path></g></g></g></g><g><g><g><g transform="matrix(1,0,0,1,349.8957824707031,471.3541564941406)"><path transform="matrix(0.015,0,0,-0.015,0,0)" d="M-4 30C-4 0 23 0 37 0L125 0C140 0 166 0 166 30C166 61 145 61 109 61L109 240C109 329 156 376 197 376C220 376 234 359 234 294L234 61C210 61 185 61 185 30C185 0 212 0 226 0L306 0C321 0 347 0 347 30C347 61 326 61 290 61L290 240C290 329 337 376 378 376C401 376 415 359 415 294L415 61C391 61 366 61 366 30C366 0 393 0 407 0L487 0C502 0 528 0 528 30C528 61 507 61 471 61L471 303C471 323 471 437 382 437C352 437 305 424 277 385C262 419 234 437 201 437C169 437 133 423 109 401C107 431 87 431 69 431L37 431C22 431 -4 431 -4 401C-4 370 17 370 53 370L53 61C17 61 -4 61 -4 30ZM582 216C582 89 677 -6 787 -6C897 -6 992 90 992 216C992 341 899 440 787 440C675 440 582 341 582 216ZM651 223C651 314 716 379 787 379C859 379 923 314 923 223C923 130 861 55 787 55C713 55 651 130 651 223ZM1259 562C1259 534 1281 512 1309 512C1337 512 1359 534 1359 562C1359 590 1337 612 1309 612C1281 612 1259 590 1259 562ZM1128 30C1128 0 1154 0 1169 0L1464 0C1479 0 1505 0 1505 30C1505 61 1479 61 1464 61L1359 61L1359 390C1359 421 1353 431 1319 431L1177 431C1162 431 1136 431 1136 401C1136 370 1162 370 1177 370L1290 370L1290 61L1169 61C1153 61 1128 61 1128 30ZM1607 31C1607 0 1631 0 1647 0L1908 0C1923 0 1949 0 1949 30C1949 61 1923 61 1908 61L1797 61L1797 186C1797 280 1856 376 1977 376C1978 352 1995 332 2020 332C2042 332 2062 348 2062 375C2062 395 2050 437 1967 437C1916 437 1852 419 1797 356L1797 390C1797 421 1791 431 1757 431L1647 431C1632 431 1607 431 1607 401C1607 370 1631 370 1647 370L1728 370L1728 61L1647 61C1632 61 1607 61 1607 31ZM2155 217C2155 95 2256 -6 2385 -6C2517 -6 2564 84 2564 109C2564 137 2535 137 2529 137C2511 137 2503 134 2496 115C2474 64 2420 55 2392 55C2317 55 2242 105 2226 191L2524 191C2545 191 2564 191 2564 228C2564 342 2500 440 2370 440C2251 440 2155 340 2155 217ZM2227 251C2241 324 2300 379 2370 379C2422 379 2484 354 2493 251ZM2681 -60C2681 -71 2686 -94 2722 -95L3050 -95C3086 -95 3093 -73 3093 -61C3093 -51 3088 -25 3052 -25L2723 -25C2685 -25 2681 -51 2681 -60ZM3359 562C3359 534 3381 512 3409 512C3437 512 3459 534 3459 562C3459 590 3437 612 3409 612C3381 612 3359 590 3359 562ZM3228 30C3228 0 3254 0 3269 0L3564 0C3579 0 3605 0 3605 30C3605 61 3579 61 3564 61L3459 61L3459 390C3459 421 3453 431 3419 431L3277 431C3262 431 3236 431 3236 401C3236 370 3262 370 3277 370L3390 370L3390 61L3269 61C3253 61 3228 61 3228 30ZM3732 216C3732 89 3827 -6 3937 -6C4047 -6 4142 90 4142 216C4142 341 4049 440 3937 440C3825 440 3732 341 3732 216ZM3801 223C3801 314 3866 379 3937 379C4009 379 4073 314 4073 223C4073 130 4011 55 3937 55C3863 55 3801 130 3801 223Z" stroke="rgb(0,0,0)" stroke-opacity="1" stroke-width="8" fill="rgb(0,0,0)" fill-opacity="1"></path></g></g></g></g><g><g><g><g transform="matrix(1,0,0,1,177.42422485351562,404.9999694824219)"><path transform="matrix(0.015,0,0,-0.015,0,0)" d="M-4 30C-4 0 23 0 37 0L125 0C140 0 166 0 166 30C166 61 145 61 109 61L109 240C109 329 156 376 197 376C220 376 234 359 234 294L234 61C210 61 185 61 185 30C185 0 212 0 226 0L306 0C321 0 347 0 347 30C347 61 326 61 290 61L290 240C290 329 337 376 378 376C401 376 415 359 415 294L415 61C391 61 366 61 366 30C366 0 393 0 407 0L487 0C502 0 528 0 528 30C528 61 507 61 471 61L471 303C471 323 471 437 382 437C352 437 305 424 277 385C262 419 234 437 201 437C169 437 133 423 109 401C107 431 87 431 69 431L37 431C22 431 -4 431 -4 401C-4 370 17 370 53 370L53 61C17 61 -4 61 -4 30ZM582 216C582 89 677 -6 787 -6C897 -6 992 90 992 216C992 341 899 440 787 440C675 440 582 341 582 216ZM651 223C651 314 716 379 787 379C859 379 923 314 923 223C923 130 861 55 787 55C713 55 651 130 651 223ZM1259 562C1259 534 1281 512 1309 512C1337 512 1359 534 1359 562C1359 590 1337 612 1309 612C1281 612 1259 590 1259 562ZM1128 30C1128 0 1154 0 1169 0L1464 0C1479 0 1505 0 1505 30C1505 61 1479 61 1464 61L1359 61L1359 390C1359 421 1353 431 1319 431L1177 431C1162 431 1136 431 1136 401C1136 370 1162 370 1177 370L1290 370L1290 61L1169 61C1153 61 1128 61 1128 30ZM1607 31C1607 0 1631 0 1647 0L1908 0C1923 0 1949 0 1949 30C1949 61 1923 61 1908 61L1797 61L1797 186C1797 280 1856 376 1977 376C1978 352 1995 332 2020 332C2042 332 2062 348 2062 375C2062 395 2050 437 1967 437C1916 437 1852 419 1797 356L1797 390C1797 421 1791 431 1757 431L1647 431C1632 431 1607 431 1607 401C1607 370 1631 370 1647 370L1728 370L1728 61L1647 61C1632 61 1607 61 1607 31ZM2155 217C2155 95 2256 -6 2385 -6C2517 -6 2564 84 2564 109C2564 137 2535 137 2529 137C2511 137 2503 134 2496 115C2474 64 2420 55 2392 55C2317 55 2242 105 2226 191L2524 191C2545 191 2564 191 2564 228C2564 342 2500 440 2370 440C2251 440 2155 340 2155 217ZM2227 251C2241 324 2300 379 2370 379C2422 379 2484 354 2493 251ZM2681 -60C2681 -71 2686 -94 2722 -95L3050 -95C3086 -95 3093 -73 3093 -61C3093 -51 3088 -25 3052 -25L2723 -25C2685 -25 2681 -51 2681 -60ZM3223 216C3223 96 3317 -6 3443 -6C3582 -6 3616 92 3616 109C3616 137 3587 137 3581 137C3565 137 3555 135 3548 115C3542 102 3523 55 3449 55C3364 55 3292 125 3292 216C3292 264 3320 379 3455 379C3476 379 3515 379 3515 370C3516 335 3535 321 3559 321C3583 321 3604 338 3604 367C3604 440 3500 440 3455 440C3283 440 3223 304 3223 216ZM3732 216C3732 89 3827 -6 3937 -6C4047 -6 4142 90 4142 216C4142 341 4049 440 3937 440C3825 440 3732 341 3732 216ZM3801 223C3801 314 3866 379 3937 379C4009 379 4073 314 4073 223C4073 130 4011 55 3937 55C3863 55 3801 130 3801 223ZM4212 30C4212 0 4238 0 4252 0L4411 0C4425 0 4451 0 4451 30C4451 61 4426 61 4410 61L4366 61L4366 238C4366 338 4440 376 4491 376C4544 376 4558 348 4558 288L4558 61L4519 61C4503 61 4478 61 4478 30C4478 0 4505 0 4519 0L4672 0C4686 0 4712 0 4712 30C4712 61 4687 61 4671 61L4627 61L4627 293C4627 394 4576 437 4497 437C4430 437 4385 403 4366 384C4366 416 4366 431 4326 431L4253 431C4237 431 4212 431 4212 400C4212 370 4238 370 4252 370L4297 370L4297 61L4253 61C4237 61 4212 61 4212 30ZM4750 400C4750 370 4775 370 4790 370L4878 370L4878 126C4878 30 4946 -6 5019 -6C5093 -6 5174 37 5174 126C5174 144 5174 165 5139 165C5106 165 5105 144 5105 127C5104 65 5047 55 5024 55C4947 55 4947 107 4947 132L4947 370L5111 370C5126 370 5151 370 5151 400C5151 431 5127 431 5111 431L4947 431L4947 513C4947 532 4947 554 4913 554C4878 554 4878 533 4878 513L4878 431L4791 431C4775 431 4750 431 4750 400Z" stroke="rgb(155,155,155)" stroke-opacity="1" stroke-width="8" fill="rgb(155,155,155)" fill-opacity="1"></path></g></g></g></g><g><g><g><g transform="matrix(1,0,0,1,168.40908813476562,458.8446350097656)"><path transform="matrix(0.015,0,0,-0.015,0,0)" d="M12 -192C12 -222 38 -222 52 -222L211 -222C225 -222 251 -222 251 -192C251 -161 226 -161 210 -161L166 -161L166 45C207 3 250 -6 282 -6C391 -6 488 89 488 216C488 339 399 437 293 437C245 437 200 419 166 388C166 417 164 431 126 431L53 431C37 431 12 431 12 400C12 370 38 370 52 370L97 370L97 -161L53 -161C37 -161 12 -161 12 -192ZM166 191L166 264C166 323 224 376 287 376C361 376 419 303 419 216C419 120 349 55 279 55C201 55 166 143 166 191ZM551 400C551 370 576 370 591 370L622 370L764 13C768 3 768 1 768 0C768 -2 743 -84 730 -109C701 -164 665 -166 650 -167C650 -166 655 -158 655 -145C655 -120 637 -102 612 -102C585 -102 568 -120 568 -146C568 -188 602 -228 651 -228C751 -228 796 -96 800 -85L955 370L985 370C1000 370 1025 370 1025 400C1025 431 1001 431 985 431L868 431C853 431 828 431 828 401C828 370 852 370 868 370L896 370L824 157C811 120 805 102 798 71L797 71C792 90 783 111 776 130L683 370L708 370C723 370 748 370 748 400C748 431 724 431 708 431L591 431C575 431 551 431 551 400ZM1062 580C1062 550 1088 550 1102 550L1147 550L1147 41C1147 21 1147 0 1182 0C1216 0 1216 20 1216 45C1257 3 1300 -6 1332 -6C1441 -6 1538 89 1538 216C1538 339 1449 437 1343 437C1295 437 1250 419 1216 388L1216 570C1216 601 1210 611 1176 611L1103 611C1087 611 1062 611 1062 580ZM1216 191L1216 264C1216 323 1274 376 1337 376C1411 376 1469 303 1469 216C1469 120 1399 55 1329 55C1251 55 1216 143 1216 191ZM1784 562C1784 534 1806 512 1834 512C1862 512 1884 534 1884 562C1884 590 1862 612 1834 612C1806 612 1784 590 1784 562ZM1653 30C1653 0 1679 0 1694 0L1989 0C2004 0 2030 0 2030 30C2030 61 2004 61 1989 61L1884 61L1884 390C1884 421 1878 431 1844 431L1702 431C1687 431 1661 431 1661 401C1661 370 1687 370 1702 370L1815 370L1815 61L1694 61C1678 61 1653 61 1653 30ZM2112 30C2112 0 2138 0 2152 0L2311 0C2325 0 2351 0 2351 30C2351 61 2326 61 2310 61L2266 61L2266 238C2266 338 2340 376 2391 376C2444 376 2458 348 2458 288L2458 61L2419 61C2403 61 2378 61 2378 30C2378 0 2405 0 2419 0L2572 0C2586 0 2612 0 2612 30C2612 61 2587 61 2571 61L2527 61L2527 293C2527 394 2476 437 2397 437C2330 437 2285 403 2266 384C2266 416 2266 431 2226 431L2153 431C2137 431 2112 431 2112 400C2112 370 2138 370 2152 370L2197 370L2197 61L2153 61C2137 61 2112 61 2112 30ZM2661 215C2661 91 2751 -6 2857 -6C2913 -6 2955 21 2983 50C2983 14 2983 0 3023 0L3096 0C3112 0 3137 0 3137 31C3137 61 3111 61 3097 61L3052 61L3052 570C3052 601 3046 611 3012 611L2939 611C2923 611 2898 611 2898 580C2898 550 2924 550 2938 550L2983 550L2983 392C2950 421 2909 437 2866 437C2757 437 2661 342 2661 215ZM2730 215C2730 311 2800 376 2870 376C2934 376 2983 320 2983 265L2983 194C2983 138 2938 55 2861 55C2790 55 2730 126 2730 215ZM3359 562C3359 534 3381 512 3409 512C3437 512 3459 534 3459 562C3459 590 3437 612 3409 612C3381 612 3359 590 3359 562ZM3228 30C3228 0 3254 0 3269 0L3564 0C3579 0 3605 0 3605 30C3605 61 3579 61 3564 61L3459 61L3459 390C3459 421 3453 431 3419 431L3277 431C3262 431 3236 431 3236 401C3236 370 3262 370 3277 370L3390 370L3390 61L3269 61C3253 61 3228 61 3228 30ZM3687 30C3687 0 3713 0 3727 0L3886 0C3900 0 3926 0 3926 30C3926 61 3901 61 3885 61L3841 61L3841 238C3841 338 3915 376 3966 376C4019 376 4033 348 4033 288L4033 61L3994 61C3978 61 3953 61 3953 30C3953 0 3980 0 3994 0L4147 0C4161 0 4187 0 4187 30C4187 61 4162 61 4146 61L4102 61L4102 293C4102 394 4051 437 3972 437C3905 437 3860 403 3841 384C3841 416 3841 431 3801 431L3728 431C3712 431 3687 431 3687 400C3687 370 3713 370 3727 370L3772 370L3772 61L3728 61C3712 61 3687 61 3687 30ZM4229 -82C4229 -168 4334 -229 4462 -229C4590 -229 4695 -167 4695 -82C4695 -45 4677 5 4626 32C4613 39 4571 61 4481 61L4411 61C4403 61 4390 61 4382 63C4367 63 4361 63 4349 77C4338 91 4337 111 4337 113C4337 117 4339 131 4343 141C4346 139 4384 116 4433 116C4525 116 4598 188 4598 277C4598 307 4589 336 4572 364C4593 376 4617 380 4630 381C4636 354 4659 347 4669 347C4686 347 4709 359 4709 388C4709 411 4690 442 4636 442C4625 442 4576 441 4530 407C4514 418 4479 437 4433 437C4339 437 4268 362 4268 277C4268 234 4285 201 4300 182C4289 166 4280 144 4280 114C4280 79 4294 54 4303 42C4229 -3 4229 -71 4229 -82ZM4287 -82C4287 -64 4296 -32 4328 -12C4353 4 4362 4 4435 4C4524 4 4637 4 4637 -82C4637 -126 4562 -169 4462 -169C4362 -169 4287 -126 4287 -82ZM4337 276C4337 333 4381 377 4433 377C4487 377 4529 330 4529 277C4529 220 4485 176 4433 176C4379 176 4337 223 4337 276ZM4781 -60C4781 -71 4786 -94 4822 -95L5150 -95C5186 -95 5193 -73 5193 -61C5193 -51 5188 -25 5152 -25L4823 -25C4785 -25 4781 -51 4781 -60ZM5262 -192C5262 -222 5288 -222 5302 -222L5461 -222C5475 -222 5501 -222 5501 -192C5501 -161 5476 -161 5460 -161L5416 -161L5416 45C5457 3 5500 -6 5532 -6C5641 -6 5738 89 5738 216C5738 339 5649 437 5543 437C5495 437 5450 419 5416 388C5416 417 5414 431 5376 431L5303 431C5287 431 5262 431 5262 400C5262 370 5288 370 5302 370L5347 370L5347 -161L5303 -161C5287 -161 5262 -161 5262 -192ZM5416 191L5416 264C5416 323 5474 376 5537 376C5611 376 5669 303 5669 216C5669 120 5599 55 5529 55C5451 55 5416 143 5416 191ZM5833 30C5833 0 5859 0 5873 0L6202 0C6217 0 6242 0 6242 30C6242 61 6218 61 6202 61L6072 61L6072 570C6072 601 6066 611 6032 611L5874 611C5858 611 5833 611 5833 580C5833 550 5859 550 5873 550L6003 550L6003 61L5874 61C5858 61 5833 61 5833 30ZM6357 216C6357 89 6452 -6 6562 -6C6672 -6 6767 90 6767 216C6767 341 6674 440 6562 440C6450 440 6357 341 6357 216ZM6426 223C6426 314 6491 379 6562 379C6634 379 6698 314 6698 223C6698 130 6636 55 6562 55C6488 55 6426 130 6426 223ZM6850 400C6850 370 6875 370 6890 370L6978 370L6978 126C6978 30 7046 -6 7119 -6C7193 -6 7274 37 7274 126C7274 144 7274 165 7239 165C7206 165 7205 144 7205 127C7204 65 7147 55 7124 55C7047 55 7047 107 7047 132L7047 370L7211 370C7226 370 7251 370 7251 400C7251 431 7227 431 7211 431L7047 431L7047 513C7047 532 7047 554 7013 554C6978 554 6978 533 6978 513L6978 431L6891 431C6875 431 6850 431 6850 400Z" stroke="rgb(155,155,155)" stroke-opacity="1" stroke-width="8" fill="rgb(155,155,155)" fill-opacity="1"></path></g></g></g><g><g><g transform="matrix(1,0,0,1,168.40908813476562,481.0511169433594)"><path transform="matrix(0.015,0,0,-0.015,0,0)" d="M-4 30C-4 0 23 0 37 0L125 0C140 0 166 0 166 30C166 61 145 61 109 61L109 240C109 329 156 376 197 376C220 376 234 359 234 294L234 61C210 61 185 61 185 30C185 0 212 0 226 0L306 0C321 0 347 0 347 30C347 61 326 61 290 61L290 240C290 329 337 376 378 376C401 376 415 359 415 294L415 61C391 61 366 61 366 30C366 0 393 0 407 0L487 0C502 0 528 0 528 30C528 61 507 61 471 61L471 303C471 323 471 437 382 437C352 437 305 424 277 385C262 419 234 437 201 437C169 437 133 423 109 401C107 431 87 431 69 431L37 431C22 431 -4 431 -4 401C-4 370 17 370 53 370L53 61C17 61 -4 61 -4 30ZM537 -192C537 -222 563 -222 577 -222L736 -222C750 -222 776 -222 776 -192C776 -161 751 -161 735 -161L691 -161L691 45C732 3 775 -6 807 -6C916 -6 1013 89 1013 216C1013 339 924 437 818 437C770 437 725 419 691 388C691 417 689 431 651 431L578 431C562 431 537 431 537 400C537 370 563 370 577 370L622 370L622 -161L578 -161C562 -161 537 -161 537 -192ZM691 191L691 264C691 323 749 376 812 376C886 376 944 303 944 216C944 120 874 55 804 55C726 55 691 143 691 191ZM1259 562C1259 534 1281 512 1309 512C1337 512 1359 534 1359 562C1359 590 1337 612 1309 612C1281 612 1259 590 1259 562ZM1128 30C1128 0 1154 0 1169 0L1464 0C1479 0 1505 0 1505 30C1505 61 1479 61 1464 61L1359 61L1359 390C1359 421 1353 431 1319 431L1177 431C1162 431 1136 431 1136 401C1136 370 1162 370 1177 370L1290 370L1290 61L1169 61C1153 61 1128 61 1128 30ZM1604 209C1604 176 1613 169 1644 169L1896 169L1896 61L1834 61C1818 61 1794 61 1794 30C1794 0 1819 0 1834 0L2014 0C2029 0 2054 0 2054 30C2054 61 2030 61 2014 61L1952 61L1952 169L2030 169C2045 169 2070 169 2070 199C2070 230 2046 230 2030 230L1952 230L1952 582C1952 615 1945 623 1911 623L1883 623C1859 623 1854 622 1841 602L1613 244C1604 231 1604 229 1604 209ZM1674 230L1896 579L1896 230ZM2112 -192C2112 -222 2138 -222 2152 -222L2311 -222C2325 -222 2351 -222 2351 -192C2351 -161 2326 -161 2310 -161L2266 -161L2266 45C2307 3 2350 -6 2382 -6C2491 -6 2588 89 2588 216C2588 339 2499 437 2393 437C2345 437 2300 419 2266 388C2266 417 2264 431 2226 431L2153 431C2137 431 2112 431 2112 400C2112 370 2138 370 2152 370L2197 370L2197 -161L2153 -161C2137 -161 2112 -161 2112 -192ZM2266 191L2266 264C2266 323 2324 376 2387 376C2461 376 2519 303 2519 216C2519 120 2449 55 2379 55C2301 55 2266 143 2266 191ZM2651 400C2651 370 2676 370 2691 370L2722 370L2864 13C2868 3 2868 1 2868 0C2868 -2 2843 -84 2830 -109C2801 -164 2765 -166 2750 -167C2750 -166 2755 -158 2755 -145C2755 -120 2737 -102 2712 -102C2685 -102 2668 -120 2668 -146C2668 -188 2702 -228 2751 -228C2851 -228 2896 -96 2900 -85L3055 370L3085 370C3100 370 3125 370 3125 400C3125 431 3101 431 3085 431L2968 431C2953 431 2928 431 2928 401C2928 370 2952 370 2968 370L2996 370L2924 157C2911 120 2905 102 2898 71L2897 71C2892 90 2883 111 2876 130L2783 370L2808 370C2823 370 2848 370 2848 400C2848 431 2824 431 2808 431L2691 431C2675 431 2651 431 2651 400Z" stroke="rgb(155,155,155)" stroke-opacity="1" stroke-width="8" fill="rgb(155,155,155)" fill-opacity="1"></path></g></g></g></g><g><g><g><g transform="matrix(1,0,0,1,328.9867248535156,89.20452880859375)"><path transform="matrix(0.015,0,0,-0.015,0,0)" d="M-4 30C-4 0 23 0 37 0L125 0C140 0 166 0 166 30C166 61 145 61 109 61L109 240C109 329 156 376 197 376C220 376 234 359 234 294L234 61C210 61 185 61 185 30C185 0 212 0 226 0L306 0C321 0 347 0 347 30C347 61 326 61 290 61L290 240C290 329 337 376 378 376C401 376 415 359 415 294L415 61C391 61 366 61 366 30C366 0 393 0 407 0L487 0C502 0 528 0 528 30C528 61 507 61 471 61L471 303C471 323 471 437 382 437C352 437 305 424 277 385C262 419 234 437 201 437C169 437 133 423 109 401C107 431 87 431 69 431L37 431C22 431 -4 431 -4 401C-4 370 17 370 53 370L53 61C17 61 -4 61 -4 30ZM582 216C582 89 677 -6 787 -6C897 -6 992 90 992 216C992 341 899 440 787 440C675 440 582 341 582 216ZM651 223C651 314 716 379 787 379C859 379 923 314 923 223C923 130 861 55 787 55C713 55 651 130 651 223ZM1259 562C1259 534 1281 512 1309 512C1337 512 1359 534 1359 562C1359 590 1337 612 1309 612C1281 612 1259 590 1259 562ZM1128 30C1128 0 1154 0 1169 0L1464 0C1479 0 1505 0 1505 30C1505 61 1479 61 1464 61L1359 61L1359 390C1359 421 1353 431 1319 431L1177 431C1162 431 1136 431 1136 401C1136 370 1162 370 1177 370L1290 370L1290 61L1169 61C1153 61 1128 61 1128 30ZM1607 31C1607 0 1631 0 1647 0L1908 0C1923 0 1949 0 1949 30C1949 61 1923 61 1908 61L1797 61L1797 186C1797 280 1856 376 1977 376C1978 352 1995 332 2020 332C2042 332 2062 348 2062 375C2062 395 2050 437 1967 437C1916 437 1852 419 1797 356L1797 390C1797 421 1791 431 1757 431L1647 431C1632 431 1607 431 1607 401C1607 370 1631 370 1647 370L1728 370L1728 61L1647 61C1632 61 1607 61 1607 31ZM2155 217C2155 95 2256 -6 2385 -6C2517 -6 2564 84 2564 109C2564 137 2535 137 2529 137C2511 137 2503 134 2496 115C2474 64 2420 55 2392 55C2317 55 2242 105 2226 191L2524 191C2545 191 2564 191 2564 228C2564 342 2500 440 2370 440C2251 440 2155 340 2155 217ZM2227 251C2241 324 2300 379 2370 379C2422 379 2484 354 2493 251ZM2681 -60C2681 -71 2686 -94 2722 -95L3050 -95C3086 -95 3093 -73 3093 -61C3093 -51 3088 -25 3052 -25L2723 -25C2685 -25 2681 -51 2681 -60ZM3179 -82C3179 -168 3284 -229 3412 -229C3540 -229 3645 -167 3645 -82C3645 -45 3627 5 3576 32C3563 39 3521 61 3431 61L3361 61C3353 61 3340 61 3332 63C3317 63 3311 63 3299 77C3288 91 3287 111 3287 113C3287 117 3289 131 3293 141C3296 139 3334 116 3383 116C3475 116 3548 188 3548 277C3548 307 3539 336 3522 364C3543 376 3567 380 3580 381C3586 354 3609 347 3619 347C3636 347 3659 359 3659 388C3659 411 3640 442 3586 442C3575 442 3526 441 3480 407C3464 418 3429 437 3383 437C3289 437 3218 362 3218 277C3218 234 3235 201 3250 182C3239 166 3230 144 3230 114C3230 79 3244 54 3253 42C3179 -3 3179 -71 3179 -82ZM3237 -82C3237 -64 3246 -32 3278 -12C3303 4 3312 4 3385 4C3474 4 3587 4 3587 -82C3587 -126 3512 -169 3412 -169C3312 -169 3237 -126 3237 -82ZM3287 276C3287 333 3331 377 3383 377C3437 377 3479 330 3479 277C3479 220 3435 176 3383 176C3329 176 3287 223 3287 276ZM3696 31C3696 0 3720 0 3736 0L3890 0C3905 0 3930 0 3930 30C3930 61 3906 61 3890 61L3841 61L3841 142L3921 216L4040 61C4004 61 3984 61 3984 30C3984 0 4009 0 4024 0L4142 0C4157 0 4183 0 4183 30C4183 61 4157 61 4142 61L4111 61L3962 255L4085 370L4120 370C4135 370 4161 370 4161 400C4161 431 4135 431 4120 431L3966 431C3950 431 3926 431 3926 400C3926 370 3951 370 3966 370L4003 370L3841 218L3841 570C3841 601 3835 611 3801 611L3736 611C3721 611 3696 611 3696 581C3696 550 3720 550 3736 550L3785 550L3785 61L3736 61C3721 61 3696 61 3696 31Z" stroke="rgb(0,0,0)" stroke-opacity="1" stroke-width="8" fill="rgb(0,0,0)" fill-opacity="1"></path></g></g></g></g></svg>
</svg>
